<svg xmlns="http://www.w3.org/2000/svg" xmlns:xlink="http://www.w3.org/1999/xlink" viewBox="0 0 1475.94 676.77"><defs><style>.cls-1{fill:url(#linear-gradient);}.cls-2{fill:#bdbdbd;}.cls-3{fill:#ffd3bc;}.cls-4{fill:url(#linear-gradient-2);}.cls-5{fill:#192b59;}.cls-6{fill:url(#linear-gradient-3);}.cls-7{fill:url(#linear-gradient-4);}.cls-8{fill:url(#linear-gradient-5);}.cls-9{fill:#e64d4e;}.cls-10{fill:url(#linear-gradient-6);}.cls-11{fill:#f2dad4;}.cls-12{fill:url(#linear-gradient-7);}.cls-13{fill:url(#linear-gradient-8);}</style><linearGradient id="linear-gradient" x1="737.97" y1="295.07" x2="737.97" y2="539.4" gradientUnits="userSpaceOnUse"><stop offset="0" stop-color="#e5e5e5"/><stop offset="0.48" stop-color="#f4f4f4"/><stop offset="1" stop-color="#fff"/></linearGradient><linearGradient id="linear-gradient-2" x1="3885.3" y1="424.27" x2="3908.04" y2="441.51" gradientTransform="matrix(-1, 0, 0, 1, 4350.92, 0)" gradientUnits="userSpaceOnUse"><stop offset="0" stop-color="#4e9cff"/><stop offset="0.98" stop-color="#176ad4"/></linearGradient><linearGradient id="linear-gradient-3" x1="400.84" y1="37.68" x2="357.83" y2="32.88" gradientUnits="userSpaceOnUse"><stop offset="0" stop-color="#f2bfad"/><stop offset="1" stop-color="#f2dad4"/></linearGradient><linearGradient id="linear-gradient-4" x1="349.38" y1="91.45" x2="496" y2="202.59" gradientTransform="matrix(1, 0, 0, 1, 0, 0)" xlink:href="#linear-gradient-2"/><linearGradient id="linear-gradient-5" x1="496.92" y1="154.11" x2="499.11" y2="191.22" gradientUnits="userSpaceOnUse"><stop offset="0" stop-color="#f2bfad"/><stop offset="0.7" stop-color="#f2dad4"/></linearGradient><linearGradient id="linear-gradient-6" x1="406.42" y1="53.12" x2="420.65" y2="82.83" xlink:href="#linear-gradient-3"/><linearGradient id="linear-gradient-7" x1="473.06" y1="118.91" x2="497.82" y2="164.47" gradientUnits="userSpaceOnUse"><stop offset="0" stop-color="#f6dbdb"/><stop offset="1" stop-color="#eb9a99"/></linearGradient><linearGradient id="linear-gradient-8" x1="360.12" y1="426.68" x2="382.86" y2="443.92" gradientTransform="matrix(1, 0, 0, 1, 0, 0)" xlink:href="#linear-gradient-2"/></defs><title>error404</title><g id="Capa_2" data-name="Capa 2"><g id="Capa_1-2" data-name="Capa 1"><ellipse class="cls-1" cx="737.97" cy="521.18" rx="737.97" ry="155.59"/><path class="cls-2" d="M630.54,297.56a6.11,6.11,0,0,0-12.07,1.88c.88,5.69,2,23.51-4.15,30.69a8.24,8.24,0,0,1-5,2.85l.56-34a8.83,8.83,0,1,0-17.65.08l1.59,64.41a8.2,8.2,0,0,1-5.16-2.88c-6.15-7.17-5-25-4.16-30.68a6.11,6.11,0,0,0-12.07-1.89c-.44,2.81-4,27.76,6.94,40.5a20.67,20.67,0,0,0,14.76,7.26l.69,28h13.33l1-58.58a20.6,20.6,0,0,0,14.44-7.23C634.51,325.31,631,300.36,630.54,297.56Z"/><path class="cls-2" d="M220.29,350.47a3.89,3.89,0,0,0-7.69,1.2c.56,3.63,1.27,15-2.65,19.56a5.26,5.26,0,0,1-3.16,1.82l.36-21.64a5.63,5.63,0,1,0-11.26,0l1,41.06a5.24,5.24,0,0,1-3.29-1.83c-3.92-4.58-3.21-15.94-2.65-19.56a3.9,3.9,0,0,0-7.7-1.21c-.28,1.79-2.53,17.7,4.43,25.82a13.17,13.17,0,0,0,9.4,4.63l.45,17.87H206l.62-37.34a13.19,13.19,0,0,0,9.21-4.61C222.82,368.16,220.57,352.26,220.29,350.47Z"/><path class="cls-3" d="M458.63,392.57s-.25,15,0,16.47-5.87,10.28-8.37,9.89-7.49-1.22-8.22-2.05-.4-2.8-.14-4.6,2.13-18.1,2.13-18.93S455.86,390.29,458.63,392.57Z"/><path class="cls-4" d="M448.94,408.18c-3.13,1.69-4.88,6.83-5.33,6.9s-1.27-.07-1.27-.57.13-2.23-.44-2.23-1.21,2.8-1.34,6.86-1.57,13.76,0,15c1,.78,10,5.53,10.29,6.16s-.19,5.09.58,5.79,2.54,2.41,3.93,2.47,9.47.89,13.28,0,8.64-2.73,8.76-3.24-.95-11.3-2.16-12.64-9.9-13.27-10.6-14.35a12.33,12.33,0,0,1-1.21-5.21c0-1.53-1.38-4.85-3.95-5.65S451.29,406.91,448.94,408.18Z"/><path class="cls-3" d="M367.37,401.23s0,8.72-.25,10.22,5.86,10.27,8.36,9.89,7.5-1.23,8.22-2.06.4-2.8.14-4.59S382,402.84,382,402,370.15,399,367.37,401.23Z"/><path class="cls-5" d="M375.42,208.82c-3.54,12.86-10.23,56.93-10.23,78.35s-2.14,76-2.14,84.32-.9,28.89,1.25,30,7.15,4.29,13.94,3.22,8.58-5.36,8.76-9.3,1.78-32.17,3.39-43.07,7.33-31.93,11.08-45.45,12.51-40.72,14.84-40.62,16.79,59.69,18,63.06,3.5,51.36,3.65,55.38,0,7.91,2.54,9.55,10.28,5.66,14.31,6,6.71-6.11,7.45-8.05,2.07-66.11,1.6-83.71.91-50.43.1-61.14-3.44-33.64-5.1-38.46S375.42,208.82,375.42,208.82Z"/><path class="cls-6" d="M350.43,59.29c3.38-3.75,19.14-21.51,22.26-22.14s10.74-2,12.44-3.75S394,9.12,391.16,5s-13.8-2.94-17.13,4-3.15,10.63-8.63,15.45S336,48.85,333.81,50.83,336,62.38,339.48,64,350.43,59.29,350.43,59.29Z"/><path class="cls-7" d="M394,64.7c-8.05,1.69-21.43,3.12-25.84,4.54s-21.82,7.54-21.69,4.94,8.05-14,6.62-15.19-10-2.6-11.42-4.42-3.38-6.1-5.33-5.58-24.53,21.55-23,29.6c3.64,19,57,32.82,58.23,41.11s-4.14,87.67-1.22,90.6,33.86,14.12,49.45,15.1,42.93-4.46,44.42-8.56-7.61-83-6.55-83,1.35,24.84,13.22,31.26c7.84,4.24,18.62-.13,20.69-2.47s-7.37-35.35-11.64-46.48-8.35-34.14-18-42.31S438.68,67.07,434,65.15s-20.42-.55-24.39-1S394,64.7,394,64.7Z"/><path class="cls-8" d="M494.54,147.71s-13.88,4.19-15,5.64-3,7.22,0,9.62,6.3,4.21,9.87,1.43,6.83-6.51,8.89-7,8.23.41,10.82-.6,7.5-20.65,5.52-21.84S494.54,147.71,494.54,147.71Z"/><path class="cls-9" d="M394,62.05c-4.48-.93-13.13-9.39-13.92-18-.77-8.38-6.93-31.91,14.5-40.73,20.11-8.28,40.81.24,43.78,10.45,2.78,9.53-20.83,10-29.48,16.17s-9.24,10.34-11.4,9.36S394,62.05,394,62.05Z"/><path class="cls-10" d="M393.68,45.28c-.29,3.84-1.25,22.39.36,25.12,1.47,2.51,4.09,9.79,14.37,9.47s16.94-10.6,17.51-11.8-.65-16.06-.65-18.55-13.81-8.35-19.35-8.19S394,41.68,393.68,45.28Z"/><path class="cls-11" d="M394.62,45.34c1.16,0-.21,7,1.89,9.34S407.75,69,417.43,67.86c8.36-1,7.16-8.22,8.37-14.16,1.09-5.38,4.57-5.85,5.79-19.91.47-5.45,3-14-1.68-15.55s-22.47-5.77-26.89,0-4.83,19.64-7.14,17.86-7.14-10.5-10-5.78S388.43,45.52,394.62,45.34Z"/><path class="cls-12" d="M469.29,117.28l-28.15,35.58a2.79,2.79,0,0,0,2.24,4.53l52-.88a2.8,2.8,0,0,0,2.19-1.12l26.59-35.53a2.54,2.54,0,0,0-2.05-4.06l-50.68.42A2.74,2.74,0,0,0,469.29,117.28Z"/><path class="cls-3" d="M513.79,131.61c-2.74.28-6.71,1.82-6.71,3.25s3.19,1.82,4.07,2,2,.41,1.71.85-1,2.64-2.76,2.25-9.47-.49-11-.49-3.25,1-3.36,2.15-.44,1.32-1.32,1.37-2.48.88-2.48,2.32,3.54,2.72,3.54,3.22,6.93,4.75,8.29,5.53,3.91,2.8,5.34,2.8,3.83-1.36,4-3.33,3-3.4,3.05-4.37-.9-1.68-.79-2.29,2.58-1.47,2.58-3-1-3.62-1.11-4.26-.72-2-.15-2.22,2.58-2,2.22-3.76S515.06,131.48,513.79,131.61Z"/><path class="cls-13" d="M376.8,410.59c3.13,1.69,4.89,6.83,5.33,6.89s1.27-.06,1.27-.57-.13-2.22.44-2.22,1.21,2.79,1.34,6.86,1.57,13.76,0,15c-1,.77-10,5.53-10.29,6.16s.19,5.08-.57,5.78-2.54,2.41-3.94,2.48-9.47.89-13.28,0-8.63-2.73-8.76-3.24,1-11.31,2.16-12.64,9.91-13.28,10.61-14.36a12.45,12.45,0,0,0,1.2-5.21c0-1.52,1.38-4.85,3.95-5.65S374.45,409.32,376.8,410.59Z"/></g></g></svg>