<svg xmlns="http://www.w3.org/2000/svg" width="80" viewBox="0 0 79.96 82.58"><defs><style>.cls-1{fill:#3daa9d;}.cls-2{fill:#00dfbf;}.cls-3{fill:#f1bb6b;}</style></defs><title>garantia-3</title><g id="Capa_2" data-name="Capa 2"><g id="Capa_1-2" data-name="Capa 1"><circle class="cls-1" cx="39.98" cy="39.98" r="39.98"/><path class="cls-2" d="M42.92,17H35.85a2,2,0,0,0-2,2v7.09a2,2,0,0,0,2,2h7.07a2,2,0,0,0,2-2V19A2,2,0,0,0,42.92,17Z"/><path class="cls-2" d="M42.92,57.69H35.85a2,2,0,0,0-2,2v7.06a2,2,0,0,0,2,2h7.07a2,2,0,0,0,2-2V59.7A2,2,0,0,0,42.92,57.69Z"/><path class="cls-2" d="M23.58,37.34H16.5a2,2,0,0,0-2,2v7.06a2,2,0,0,0,2,2h7.08a2,2,0,0,0,2-2V39.35A2,2,0,0,0,23.58,37.34Z"/><path class="cls-2" d="M23.58,17H16.5a2,2,0,0,0-2,2v7.09a2,2,0,0,0,2,2h7.08a2,2,0,0,0,2-2V19A2,2,0,0,0,23.58,17Z"/><path class="cls-2" d="M62.26,37.34H55.19a2,2,0,0,0-2,2v7.06a2,2,0,0,0,2,2h7.07a2,2,0,0,0,2-2V39.35A2,2,0,0,0,62.26,37.34Z"/><path class="cls-2" d="M62.26,17H55.19a2,2,0,0,0-2,2v7.09a2,2,0,0,0,2,2h7.07a2,2,0,0,0,2-2V19A2,2,0,0,0,62.26,17Z"/><path class="cls-2" d="M62.26,57.69H55.19a2,2,0,0,0-2,2v7.06a2,2,0,0,0,2,2h7.07a2,2,0,0,0,2-2V59.7A2,2,0,0,0,62.26,57.69Z"/><path class="cls-3" d="M37.68,47.64a2.89,2.89,0,0,1,4.13-.75,3,3,0,0,1,.6,4.06L27.91,73c.93.31,2.07,0,5.27,1.42,2.4,1.08,5.2,3.41,4.39,6-.59,2-1.82,2.11-1.82,2.11S31.06,80,26.92,79.76c-4.45-.31-6.65,1.36-9.71-.65l-6.48-4.27A7.69,7.69,0,0,1,8.54,64.18l6.6-10.05.12-.15a3.22,3.22,0,0,1,4.27-.68,3.33,3.33,0,0,1,1.08,1.17A3.23,3.23,0,0,1,26,56a3.15,3.15,0,0,1,2.86.34,3.2,3.2,0,0,1,1.44,2.5Z"/></g></g></svg>