<svg xmlns="http://www.w3.org/2000/svg" width="80" viewBox="0 0 79.96 79.96"><defs><style>.cls-1{fill:#ffb200;}.cls-2{fill:#525c6b;}.cls-3{fill:#7a8e9b;}.cls-4{fill:#ef0f30;}</style></defs><title>garantia-2</title><g id="Capa_2" data-name="Capa 2"><g id="Capa_1-2" data-name="Capa 1"><circle class="cls-1" cx="39.98" cy="39.98" r="39.98"/><path class="cls-2" d="M58.71,35.49H21.6A2.57,2.57,0,0,0,19,38.05v8.43a21.17,21.17,0,0,0,20.83,21.1c11.78.17,21.41-9.81,21.41-21.59V38.05A2.56,2.56,0,0,0,58.71,35.49Z"/><path class="cls-3" d="M40.16,12.92A17.47,17.47,0,0,0,22.73,30.33v5.16H28.3V30.33a11.85,11.85,0,0,1,23.7,0v5.16h5.58V30.33A17.48,17.48,0,0,0,40.16,12.92Z"/><path class="cls-4" d="M47.4,48a4,4,0,0,0-4-4,4,4,0,0,0-3.46,2,4,4,0,0,0-7.51,2c0,4.75,7.51,9.34,7.51,9.34S47.4,52.78,47.4,48Z"/></g></g></svg>