<svg xmlns="http://www.w3.org/2000/svg" width="80" viewBox="0 0 79.96 87.22"><defs><style>.cls-1{fill:#ef0f30;}.cls-2{fill:#3daa9d;}.cls-3{fill:#fff;}.cls-4{fill:#f1bb6b;}</style></defs><title>garantia-1</title><g id="Capa_2" data-name="Capa 2"><g id="Capa_1-2" data-name="Capa 1"><circle class="cls-1" cx="39.98" cy="39.98" r="39.98"/><path class="cls-2" d="M63.69,26.08H21.32a6.38,6.38,0,0,0-6.39,6.34V49.23a6.39,6.39,0,0,0,6.39,6.38H63.69a6.38,6.38,0,0,0,6.38-6.38V32.42A6.37,6.37,0,0,0,63.69,26.08Z"/><polygon class="cls-3" points="64.12 40.83 54.65 32.06 54.65 36.79 41.1 36.79 41.1 44.86 54.65 44.86 54.65 49.59 64.12 40.83"/><path class="cls-4" d="M32,42.29a3.75,3.75,0,0,0-5.32-1,3.9,3.9,0,0,0-.77,5.24L44.55,74.88c-1.22.39-2.68,0-6.79,1.87-3.09,1.35-6.67,4.38-5.64,7.72.75,2.52,2.34,2.75,2.34,2.75s6-3.26,11.35-3.65c5.72-.38,8.56,1.75,12.46-.85l8.34-5.47a9.87,9.87,0,0,0,2.83-13.7L61,50.63a.44.44,0,0,0-.16-.19,4.13,4.13,0,0,0-5.49-.9,4.2,4.2,0,0,0-1.38,1.56,4.1,4.1,0,0,0-5.16-.51A3.9,3.9,0,0,0,47,53.08a4.23,4.23,0,0,0-3.71.42,4.07,4.07,0,0,0-1.84,3.18Z"/></g></g></svg>