<svg xmlns="http://www.w3.org/2000/svg" width="177" height="157" viewBox="0 0 177.23 157.11"><defs><style>.cls-1{fill:#fff;}.cls-2{fill:#1a2e35;}.cls-3{fill:#ef0f30;}.cls-4{fill:#ececec;}.cls-5{fill:#e1e1e1;}.cls-6{opacity:0.2;}.cls-7{fill:#ce1111;}.cls-8{opacity:0.3;}</style></defs><title>icono-1</title><g id="Capa_2" data-name="Capa 2"><g id="Capa_1-2" data-name="Capa 1"><polygon class="cls-1" points="27.17 88.42 0.12 155.6 50.84 147.26 88.03 155.6 126.13 147.26 177.08 156.98 149.8 88.42 119.37 80.76 88.6 86.62 57.15 80.76 27.17 88.42"/><path class="cls-2" d="M27.17,88.42l.49-.13,1.48-.38L35,86.41l22.19-5.7h0l31.45,5.84h0l30.77-5.87h0l30.43,7.66h.05v0l27.29,68.55.06.17-.17,0-26.21-5-24.74-4.72h0l-38.1,8.34h0l-37.19-8.35h0L.13,155.67l-.13,0,.05-.12C8.42,134.84,15.19,118,19.87,106.43c2.35-5.8,4.17-10.3,5.4-13.36l1.41-3.47.49-1.18-.47,1.2c-.32.78-.79,1.95-1.4,3.48l-5.37,13.39C15.27,118.1,8.52,134.89.18,155.63l-.08-.1,50.72-8.35h0l37.19,8.33h0l38.1-8.34h0l24.74,4.71,26.21,5L177,157,149.72,88.46l.06.05-30.43-7.67h0L88.61,86.69h0L57.14,80.81h0L35,86.45l-5.82,1.48-1.49.37C27.34,88.39,27.17,88.42,27.17,88.42Z"/><polygon class="cls-1" points="28.75 90.23 4.85 152.22 50.61 144.78 88.6 153.57 126.13 144.56 172.79 153.57 148.22 90.23 119.82 83.24 88.6 89.1 56.7 83.24 28.75 90.23"/><polygon class="cls-3" points="7.5 145.33 43.88 136.91 42.53 129.07 45.56 127.17 40.86 108.87 26.31 96.54 7.5 145.33"/><polygon class="cls-4" points="4.85 152.22 6.62 147.62 67.61 133.45 70.92 142.57 69.85 144.41 58.39 146.58 50.61 144.78 4.85 152.22"/><polygon class="cls-4" points="70.92 132.57 73.34 141.59 80.36 144.64 90.36 140.2 111.32 134.09 104.78 124.24 70.92 132.57"/><polygon class="cls-5" points="46.56 135.91 57.89 133.45 55.63 126.09 47.38 128.08 45.18 129.63 46.56 135.91"/><polygon class="cls-3" points="44.25 111.51 48.36 125.01 54.79 123.59 53.63 118.41 67.78 115.24 44.25 111.51"/><polygon class="cls-4" points="27.38 93.77 45.18 108.06 68.81 112.54 94.01 106.27 82.51 87.98 56.7 83.24 28.75 90.23 27.38 93.77"/><polygon class="cls-4" points="85.95 88.61 122.9 145.33 126.13 144.56 90.37 88.77 88.6 89.1 85.95 88.61"/><polygon class="cls-5" points="56.01 119.83 60.7 133.45 102.26 122.83 94.57 109.74 56.01 119.83"/><polyline class="cls-5" points="79.14 151.38 79.54 150.78 82.27 146.72 88.82 144.64 93.33 141.25 112.86 135.91 118.93 146.29 88.6 153.57"/><polygon class="cls-5" points="113.74 84.38 123.53 95.27 148.22 90.23 119.82 83.24 113.74 84.38"/><polygon class="cls-5" points="153.42 103.63 135.28 108.67 126.13 96.54 148.84 91.83 153.42 103.63"/><polygon class="cls-4" points="92.31 88.4 111.32 115.72 133.27 109.42 111.32 84.83 92.31 88.4"/><polygon class="cls-5" points="145.47 148.29 167.41 139.7 172.79 153.57 145.47 148.29"/><polygon class="cls-3" points="122.52 114.08 134.44 110.98 147.04 126.09 134.78 130.16 122.52 114.08"/><polygon class="cls-5" points="137.13 109.74 150.4 124.95 160.39 121.59 153.82 104.66 137.13 109.74"/><polygon class="cls-3" points="147.04 144.74 137.13 131 161.08 123.36 165.94 135.91 162.82 139.05 147.04 144.74"/><polygon class="cls-5" points="112.49 117.73 130.69 145.33 141.9 147.6 144.01 146.64 120.95 115.18 112.49 117.73"/><polygon class="cls-5" points="37.89 138.3 33.35 116.97 17.36 119.77 7.5 145.33 37.89 138.3"/><polygon class="cls-3" points="52.59 84.27 52.59 94.03 56.01 94.46 65.57 105.6 73.79 104.66 77.7 110.33 68.81 112.54 45.18 108.06 27.38 93.77 28.75 90.23 52.59 84.27"/><polygon class="cls-5" points="102.57 86.56 116 106.16 127.56 103.03 111.32 84.83 102.57 86.56"/><polygon class="cls-4" points="141.99 106.8 137.13 99.21 150.27 95.5 153.42 103.63 141.99 106.8"/><polygon class="cls-4" points="122.52 132.94 128.88 130.75 141.21 147.47 130.69 145.33 122.52 132.94"/><polygon class="cls-3" points="63.87 147.85 69.78 147.13 71.75 144.25 79.14 146.57 77.2 150.94 63.87 147.85"/><path class="cls-2" d="M28.74,90.23l1.85-.47L36,88.39l20.69-5.2h0L88.61,89h0l31.22-5.87h0l28.4,7h0l0,0c7.52,19.38,15.82,40.79,24.58,63.34l.06.16-.17,0-23.42-4.52-23.25-4.5h0l-37.53,9h0l-38-8.8h0L4.86,152.29l-.12,0,0-.11c7.4-19.15,13.39-34.65,17.52-45.36l4.77-12.33c.55-1.4,1-2.47,1.25-3.2l.42-1.08s-.13.37-.41,1.1-.69,1.8-1.23,3.21c-1.08,2.83-2.68,7-4.74,12.35L4.92,152.25l-.08-.1L50.6,144.7h0l38,8.78h-.05l37.54-9h0L149.4,149l23.41,4.53-.11.13L148.14,90.26l.06,0-28.4-7h0L88.61,89.17h0L56.69,83.29h0L36,88.43,30.6,89.78Z"/><g class="cls-6"><polygon points="88.03 155.6 88.6 86.62 57.15 80.76 50.84 147.26 88.03 155.6"/></g><g class="cls-6"><polygon points="119.37 80.76 126.13 147.26 177.08 156.98 149.8 88.42 119.37 80.76"/></g><path class="cls-7" d="M87.63,0A43.42,43.42,0,0,0,53.41,68.78h0l.42.58.06.08,30.76,41.83A6.6,6.6,0,0,0,95.43,111l27.8-41.32c5.26-8,8.86-16.41,8.86-26.29A43.43,43.43,0,0,0,87.63,0Zm.68,66A23.66,23.66,0,1,1,112,42.36,23.66,23.66,0,0,1,88.31,66Z"/><g class="cls-8"><path class="cls-7" d="M87.63,0A43.42,43.42,0,0,0,53.41,68.78h0l.42.58.06.08,30.76,41.83A6.6,6.6,0,0,0,95.43,111l27.8-41.32c5.26-8,8.86-16.41,8.86-26.29A43.43,43.43,0,0,0,87.63,0Zm.68,66A23.66,23.66,0,1,1,112,42.36,23.66,23.66,0,0,1,88.31,66Z"/></g><path class="cls-3" d="M85.06,0A43.41,43.41,0,0,0,50.84,68.78h0l.42.58.06.08,30.75,41.83a6.61,6.61,0,0,0,10.8-.23l27.79-41.32c5.26-8,8.87-16.41,8.87-26.29A43.43,43.43,0,0,0,85.06,0Zm1.39,66a23.66,23.66,0,1,1,23.66-23.66A23.66,23.66,0,0,1,86.45,66Z"/></g></g></svg>