<svg xmlns="http://www.w3.org/2000/svg"  width="138" height="186" viewBox="0 0 139.04 187.26"><defs><style>.cls-1,.cls-10,.cls-9{fill:#fff;}.cls-1{stroke:#434040;stroke-miterlimit:10;}.cls-2{fill:#f2f2f2;}.cls-3{fill:#1a2e35;}.cls-4{fill:#e12144;}.cls-5,.cls-6{fill:#ffb200;}.cls-5{stroke:#ffb200;stroke-width:0.56px;}.cls-7{fill:#ef0f30;}.cls-8{opacity:0.1;}.cls-9{opacity:0.4;}.cls-11{fill:#f5f5f5;}.cls-12{fill:#e1e1e1;}</style></defs><title>icono-3</title><g id="Capa_2" data-name="Capa 2"><g id="Capa_1-2" data-name="Capa 1"><g id="Device"><path class="cls-1" d="M4.42,186.2l-1.59-.92a5.17,5.17,0,0,1-2.33-4V42.14a5.17,5.17,0,0,1,2.33-4L67,1.06a5.13,5.13,0,0,1,4.67,0L73.24,2a5.15,5.15,0,0,1,2.34,4v139.1a5.15,5.15,0,0,1-2.34,4l-64.15,37A5.19,5.19,0,0,1,4.42,186.2Z"/><path class="cls-1" d="M9.88,44.86l-8.7-5a4.8,4.8,0,0,0-.68,2.3v139.1a5.17,5.17,0,0,0,2.33,4l1.59.92a5.19,5.19,0,0,0,4.67,0l.79-.46Z"/><path class="cls-1" d="M6.76,45.75v139.1c0,1.49,1,2.09,2.33,1.35l64.15-37a5.15,5.15,0,0,0,2.34-4V6c0-1.49-1-2.09-2.34-1.35l-64.15,37A5.14,5.14,0,0,0,6.76,45.75Z"/><path class="cls-1" d="M11.88,54.55,70.22,20.87c1.11-.64,2-.12,2,1.15V133a4.41,4.41,0,0,1-2,3.47L11.89,170.14c-1.11.64-2,.12-2-1.16V58A4.42,4.42,0,0,1,11.88,54.55Z"/><path class="cls-2" d="M12.72,56.75,69.33,24.32c1.07-.61,1.94-.11,1.94,1.12V132.27a4.27,4.27,0,0,1-1.94,3.34L12.72,168c-1.07.61-1.94.11-1.94-1.11V60.08A4.22,4.22,0,0,1,12.72,56.75Z"/><path class="cls-3" d="M41.17,26.8c.86-.5,1.56-.09,1.56.91a3.44,3.44,0,0,1-1.56,2.7c-.87.5-1.57.1-1.57-.9A3.45,3.45,0,0,1,41.17,26.8Z"/><path class="cls-3" d="M36.65,34.62c3.18-1.76,8.85-5.14,12-7,.53-.31,1-.1,1,.48a2.08,2.08,0,0,1-1,1.61l-12,6.93c-.54.31-1,.09-1-.49A2,2,0,0,1,36.65,34.62Z"/><path class="cls-3" d="M33.62,36.37c.48-.28.88-.06.88.5a2,2,0,0,1-.88,1.53c-.49.28-.88.05-.88-.51A1.93,1.93,0,0,1,33.62,36.37Z"/><path class="cls-3" d="M41.17,156.84c1.72-1,3.13-.19,3.13,1.81a7,7,0,0,1-3.13,5.42c-1.73,1-3.13.19-3.13-1.81A6.92,6.92,0,0,1,41.17,156.84Z"/><path class="cls-4" d="M44.27,99.81l0,3.53-2.49,2,0-3.43c-2.37,1.78-4.23,2.45-5.86,1.57l2.18-4.64c1,.55,2.47,0,3.95-1.12L42,92l-.79.47c-1.48.87-2.67,1.06-3.42.65s-1.29-1.61-1.32-3.56a14.31,14.31,0,0,1,5-10.6l0-2.86,2.48-1.75,0,2.81c2-1.26,3.54-1.57,4.89-.91L46.7,80.49c-.82-.41-2,.06-3.05.7l.08,5.5.94-.51c1.61-.88,2.62-1.07,3.38-.76,1,.42,1.39,1.68,1.42,3.63C49.53,92.82,47.34,96.89,44.27,99.81ZM41.83,82.55a6,6,0,0,0-2.1,4.38c0,.57.16,1.07.54,1.25a1.89,1.89,0,0,0,1.64-.32Zm3.72,7.73c-.5-.22-1.12.16-1.76.52l.08,5.43a6.2,6.2,0,0,0,2.25-4.48C46.11,91,45.93,90.44,45.55,90.28Z"/><path class="cls-5" d="M47.4,53.29A3.05,3.05,0,0,1,46,55.56l-6.57,4.07c-.78.48-1.42.23-1.42-.56V54a3,3,0,0,1,1.41-2.27L46,47.81c.79-.46,1.42-.22,1.43.55Z"/><path class="cls-4" d="M42.82,119.08c-12.51,10.46-22.69,4.72-22.69-12.82s10.14-38.17,22.6-46c1.82-1.15,3.31-.17,3.31,2.17a8.46,8.46,0,0,1-3.3,6.43c-8.82,5.83-16,20.43-16,32.57s7.21,16.2,16.06,9.07c1.83-1.48,3.32-.77,3.32,1.57A10.37,10.37,0,0,1,42.82,119.08Z"/><path class="cls-6" d="M52.11,66a1.31,1.31,0,0,1-.84.26c-.75-.09-1-1.18-.51-2.43l1.92-5.14c.46-1.23,1.44-2.14,2.18-2s1,1.17.51,2.4l-1.92,5.11A3.89,3.89,0,0,1,52.11,66Z"/><path class="cls-6" d="M58.54,69.79c-.57.41-1.13.41-1.41-.07-.41-.68-.11-2.07.67-3.1L61,62.36c.78-1,1.74-1.3,2.15-.63s.1,2-.68,3.05l-3.22,4.28A3.15,3.15,0,0,1,58.54,69.79Z"/><path class="cls-6" d="M60.68,92.22a1.63,1.63,0,0,1-.81.37l-3.15.22c-.76,0-1-1-.58-2.25s1.42-2.34,2.18-2.38L61.47,88c.76-.06,1,.92.58,2.19A4.83,4.83,0,0,1,60.68,92.22Z"/><path class="cls-6" d="M52.85,107.57c-.56.46-1.11.54-1.4.12l-1.77-2.59c-.43-.63-.15-2.08.61-3.23s1.74-1.57,2.17-.94l1.77,2.55c.43.61.16,2-.61,3.21A4,4,0,0,1,52.85,107.57Z"/><path class="cls-6" d="M63.86,76l-3.64,2.69c-.88.65-1.59.3-1.6-.77a4.28,4.28,0,0,1,1.59-3.1l3.64-2.64c.87-.64,1.59-.31,1.59.74A4.28,4.28,0,0,1,63.86,76Z"/></g><path class="cls-7" d="M126.09,60.39,111.2,51.8h0l-.16-.1v0c-7.41-4.18-17.56-3.56-28.81,2.94C71.67,60.73,62.07,70.85,54.83,82.56c-8.36,13.49-13.62,29.1-13.62,43.1,0,13.05,4.56,22.22,12,26.51h0l0,0,15.12,8.64c7.47,4.76,18,4.34,29.71-2.42,22.64-13.07,41-44.86,41-71C139,73.81,134.06,64.43,126.09,60.39Z"/><path class="cls-8" d="M68,160.67l-14.83-8.48h-.05v0c-7.39-4.28-11.95-13.45-11.95-26.5,0-14,5.26-29.6,13.62-43.09l15.82,9.12C62.29,105.18,57,120.77,57,134.75,57,147.23,61.22,156.15,68,160.67Z"/><path class="cls-9" d="M125.79,60.22c-7.3-3.54-17.05-2.64-27.75,3.53C87.51,69.84,77.91,80,70.65,91.69L54.83,82.57c7.24-11.72,16.84-21.84,27.36-27.9,11.24-6.49,21.4-7.11,28.81-2.94l0,0,.15.09h0Z"/><polygon class="cls-10" points="119.39 76.88 113.71 73.6 91.47 126.02 95.27 128.2 119.39 76.88"/><polygon class="cls-10" points="87.11 114.31 81.44 111.04 75.34 123.94 81.02 127.22 87.11 114.31"/><polygon class="cls-11" points="96.73 143.57 81.02 127.22 87.11 114.31 95.27 128.2 119.39 76.88 128.33 85.6 96.73 143.57"/><polygon class="cls-12" points="75.34 123.94 81.02 127.22 96.73 143.57 91.06 140.33 75.34 123.94"/></g></g></svg>