<svg xmlns="http://www.w3.org/2000/svg"  xmlns:xlink="http://www.w3.org/1999/xlink" viewBox="0 0 203.83 162.33" width="203" height="161" ><defs><style>.cls-1{fill:#ce1111;}.cls-2{fill:none;}.cls-3{isolation:isolate;}.cls-4{clip-path:url(#clip-path);}.cls-5{clip-path:url(#clip-path-2);}.cls-6{fill:#be0000;}.cls-7{clip-path:url(#clip-path-3);}.cls-8{fill:#ef0f30;}.cls-15,.cls-9{fill:#e1e1e1;}.cls-10,.cls-12,.cls-13{fill:#fff;}.cls-10{stroke:#434040;stroke-miterlimit:10;}.cls-11,.cls-14{fill:#434040;}.cls-12{opacity:0.18;}.cls-13{opacity:0.1;}.cls-14{opacity:0.89;}.cls-15{opacity:0.81;}</style><clipPath id="clip-path"><path class="cls-1" d="M142.45,28l-.08,28.11c0,6.37-4.21,12.74-12.58,17.6l.08-28.11C138.24,40.74,142.43,34.37,142.45,28Z"/></clipPath><clipPath id="clip-path-2"><path class="cls-2" d="M34.56,103.07q0-14.05.08-28.11A108,108,0,0,0,37.29,99.4l-.08,28.11A108,108,0,0,1,34.56,103.07Z"/></clipPath><clipPath id="clip-path-3"><path class="cls-2" d="M203.83,63.45q0,14.05-.08,28.11c0,6.37-4.2,12.73-12.57,17.59C145,136,42.6,127.94,37.21,127.51l.08-28.11c5.39.43,107.77,8.49,154-18.36C199.63,76.18,203.81,69.82,203.83,63.45Z"/></clipPath></defs><title>icono-2</title><g id="Capa_2" data-name="Capa 2"><g id="Capa_1-2" data-name="Capa 1"><g class="cls-3"><path class="cls-1" d="M142.45,28l-.08,28.11c0,6.37-4.21,12.74-12.58,17.6l.08-28.11C138.24,40.74,142.43,34.37,142.45,28Z"/><g class="cls-4"><g class="cls-3"><path class="cls-1" d="M142.45,28l-.08,28.11c0,6.37-4.21,12.74-12.58,17.6l.08-28.11c8.37-4.86,12.56-11.23,12.58-17.6Z"/></g></g><g class="cls-3"><g class="cls-5"><g class="cls-3"><path class="cls-6" d="M37.29,99.4l-.08,28.11a108,108,0,0,1-2.65-24.44L34.64,75A108,108,0,0,0,37.29,99.4Z"/></g></g></g><g class="cls-3"><g class="cls-7"><path class="cls-1" d="M203.83,63.45l-.08,28.11c0,6.37-4.2,12.73-12.57,17.59C145,136,42.6,127.94,37.21,127.51l.08-28.11c5.39.43,107.77,8.49,154-18.36,8.37-4.86,12.55-11.22,12.57-17.59Z"/></g></g><path class="cls-8" d="M191.06,45.6c16.95,9.79,17,25.65.2,35.44-46.2,26.85-148.58,18.79-154,18.36-.75-3.12-15-62.39,31.2-89.24,16.84-9.79,44.23-9.79,61.18,0s17,25.65.2,35.44C146.71,35.81,174.11,35.81,191.06,45.6Z"/></g><path class="cls-9" d="M146.16,136.18l-38.25,17.64a7.4,7.4,0,0,1-9.86-3.54l-39.66-86a7.39,7.39,0,0,1,3.71-9.79l38.24-17.64a7.4,7.4,0,0,1,9.86,3.54l39.67,86A7.4,7.4,0,0,1,146.16,136.18Z"/><path class="cls-10" d="M156,130.51,111.81,34.78a7.47,7.47,0,0,0-9.92-3.65L57,51.84a7.46,7.46,0,0,0-3.66,9.91l44.15,95.73a7.48,7.48,0,0,0,9.92,3.66l44.9-20.71A7.48,7.48,0,0,0,156,130.51Zm-9.39,6.58-38.24,17.63a7.46,7.46,0,0,1-9.91-3.65L58.06,63.57a7.48,7.48,0,0,1,3.65-9.92L67.38,51l1.26,2.61a2.89,2.89,0,0,0,3.84,1.41L95.19,44.59a2.91,2.91,0,0,0,1.42-3.84l-1.22-2.63L100,36a7.46,7.46,0,0,1,9.91,3.65l40.36,87.5A7.48,7.48,0,0,1,146.57,137.09Z"/><path class="cls-11" d="M74.78,51.92a1.5,1.5,0,1,1,1.33-2.13h0a1.51,1.51,0,0,1-.74,2A1.38,1.38,0,0,1,74.78,51.92Zm-.07-2.58a1.08,1.08,0,1,0,1,.63h0A1.08,1.08,0,0,0,74.71,49.34Z"/><path class="cls-11" d="M79.24,49.46a1.15,1.15,0,0,1-1.1-.68,1.13,1.13,0,0,1,0-.9,1.2,1.2,0,0,1,.61-.66l10.87-5a1.17,1.17,0,0,1,1,2.13l-10.87,5A1.09,1.09,0,0,1,79.24,49.46Zm10.81-6.94a.73.73,0,0,0-.29.07l-10.87,5A.76.76,0,0,0,79.52,49l10.87-5a.75.75,0,0,0,.37-1,.72.72,0,0,0-.43-.39A.66.66,0,0,0,90.05,42.52Z"/><polygon class="cls-12" points="112.22 44.77 71.72 93.18 77.02 104.68 116.3 53.6 112.22 44.77"/><polygon class="cls-13" points="119.35 60.41 82.37 116.48 87.67 127.98 123.59 69.61 119.35 60.41"/><rect class="cls-10" x="-12.03" y="30.4" width="102.51" height="50.03" rx="6.27" transform="translate(-25.99 74.32) rotate(-70.88)"/><rect class="cls-10" x="0.11" y="33.67" width="78.09" height="44.13" transform="translate(-26.33 74.47) rotate(-70.88)"/><path class="cls-14" d="M54.65,11.69a.73.73,0,0,1-.25,0,.77.77,0,0,1-.43-.38.76.76,0,0,1,.35-1,.75.75,0,0,1,.57,0,.8.8,0,0,1,.44.39.75.75,0,0,1,0,.57.74.74,0,0,1-.38.43A.67.67,0,0,1,54.65,11.69Zm0-1.09a.4.4,0,0,0-.15,0,.34.34,0,0,0-.17.2.31.31,0,0,0,0,.25.29.29,0,0,0,.19.17.31.31,0,0,0,.25,0,.32.32,0,0,0,.17-.19h0a.33.33,0,0,0,0-.26.35.35,0,0,0-.19-.17Z"/><path class="cls-14" d="M57.7,15.45l-.19,0h0l-7.89-2.74a.56.56,0,0,1-.35-.73.54.54,0,0,1,.29-.32.56.56,0,0,1,.44,0l7.89,2.74a.59.59,0,0,1,.33.29.61.61,0,0,1,0,.44A.57.57,0,0,1,57.7,15.45ZM57.65,15a.16.16,0,0,0,.2-.09.17.17,0,0,0,0-.12.18.18,0,0,0-.09-.08L49.86,12a.13.13,0,0,0-.12,0,.18.18,0,0,0-.08.09.16.16,0,0,0,.1.2L57.65,15Z"/><rect class="cls-15" x="3.17" y="35.74" width="73.01" height="39.46" transform="translate(-25.73 74.77) rotate(-70.88)"/><path class="cls-11" d="M28.58,101.31a1.63,1.63,0,0,1-.57-.1l-8.33-2.89a1.71,1.71,0,0,1-1.06-2.17l.05-.15a1.7,1.7,0,0,1,2.18-1l8.33,2.89A1.71,1.71,0,0,1,30.24,100l0,.15a1.71,1.71,0,0,1-.87,1A1.78,1.78,0,0,1,28.58,101.31Zm-9.56-5a1.29,1.29,0,0,0,.79,1.65l8.34,2.89a1.3,1.3,0,0,0,1.64-.8l.05-.14a1.29,1.29,0,0,0-.79-1.65l-8.34-2.89a1.31,1.31,0,0,0-1,.06,1.25,1.25,0,0,0-.65.74Z"/><polygon class="cls-12" points="28.73 18.45 64.48 50.05 60.25 62.24 25.61 26.83 28.73 18.45"/><polygon class="cls-12" points="23.36 33.84 59.1 65.44 54.88 77.63 22.27 36.76 23.36 33.84"/></g></g></svg>