<svg xmlns="http://www.w3.org/2000/svg"  width="214" height="192" viewBox="0 0 214.44 192.69"><defs><style>.cls-1{fill:#ffb200;}.cls-2{fill:#dd8d00;}.cls-3{fill:#fff;}.cls-4{fill:#ce1111;}.cls-5{fill:#ef0f30;}.cls-6{fill:#d18100;}</style></defs><title>icono-4</title><g id="Capa_2" data-name="Capa 2"><g id="Capa_1-2" data-name="Capa 1"><path class="cls-1" d="M211.7,115.23l-9.61,5.55c1.61-1,2.61-3.07,2.61-6V98.61c0-6-4.18-13.19-9.34-16.17L171.6,68.72c-2.53-1.46-4.82-1.62-6.5-.71l9.64-5.57c1.69-1,4-.83,6.6.66L205.1,76.82c5.16,3,9.34,10.21,9.34,16.17v16.2C214.44,112.16,213.39,114.25,211.7,115.23Z"/><path class="cls-2" d="M204.7,98.61v16.2c0,2.9-1,5-2.61,6l-.13.07c-1.69,1-4,.84-6.6-.65L171.6,106.48l-9.34,2.66v-35c0-3,1.05-5.06,2.74-6l.1-.06c1.68-.91,4-.75,6.5.71l23.76,13.72C200.52,85.42,204.7,92.66,204.7,98.61Z"/><path class="cls-3" d="M178.48,90.8c0,1.27-1,1.71-2.3,1a4.77,4.77,0,0,1-2.3-3.63c0-1.27,1-1.71,2.3-1A4.77,4.77,0,0,1,178.48,90.8Z"/><path class="cls-3" d="M185.78,95c0,1.27-1,1.71-2.3,1a4.79,4.79,0,0,1-2.3-3.64c0-1.27,1-1.7,2.3-1A4.77,4.77,0,0,1,185.78,95Z"/><path class="cls-3" d="M193.08,99.23c0,1.27-1,1.7-2.3,1a4.77,4.77,0,0,1-2.3-3.63c0-1.27,1-1.71,2.3-1A4.8,4.8,0,0,1,193.08,99.23Z"/><path class="cls-2" d="M173.64,40.1v2.48a1.4,1.4,0,0,0-1.52-1.24A1.4,1.4,0,0,0,173.64,40.1Z"/><path class="cls-2" d="M173.64,38V40.1a1.4,1.4,0,0,0-1.52-1.24h-3.48a15.37,15.37,0,0,0,.76-4.28v-.31h2.72a1.4,1.4,0,0,1,1.52,1.24Z"/><path class="cls-2" d="M173.34,43.31v1.61a1.22,1.22,0,0,0-.82-1.1h-.37A1.64,1.64,0,0,0,173.34,43.31Z"/><path class="cls-2" d="M171.83,46.16a1.81,1.81,0,0,0,.58-.09V47.2a1.16,1.16,0,0,0-.62-1v0Z"/><path class="cls-1" d="M169.4,34.57a15.37,15.37,0,0,1-.76,4.28h3.48a1.27,1.27,0,1,1,0,2.48,1.4,1.4,0,0,1,1.52,1.24,1.06,1.06,0,0,1-.3.73,1.64,1.64,0,0,1-1.19.51h.37a1.22,1.22,0,0,1,.82,1.1,1.24,1.24,0,0,1-.93,1.14h0a1.81,1.81,0,0,1-.58.09h-1.09l1,0a1.16,1.16,0,0,1,.62,1,1.39,1.39,0,0,1-1.51,1.23h-6.29c-2.31,0-4.19-1.53-4.19-3.42V41.42a3.13,3.13,0,0,1,2.38-2.85,5.85,5.85,0,0,0,3.8-4c.69-2.08,2.57-2,2.78-.31A3,3,0,0,1,169.4,34.57Z"/><path class="cls-2" d="M162.8,38.57a3.13,3.13,0,0,0-2.38,2.85v-4.6A3.13,3.13,0,0,1,162.8,34a5.85,5.85,0,0,0,3.8-4c.73-2.21,2.8-2,2.8,0v4.29h0c-.21-1.7-2.09-1.77-2.78.31A5.85,5.85,0,0,1,162.8,38.57Z"/><path class="cls-2" d="M93.42,6.3l-3.74-.58C90.05,2.58,90.93.15,91.54,0h.08L96,.69h0c-.21,0-.46.28-.73.87A19.69,19.69,0,0,0,94,8.47c0-1.41-.23-2.17-.57-2.17Z"/><path class="cls-1" d="M94,8.47a19.69,19.69,0,0,1,1.3-6.91c.27-.59.52-.87.73-.87s.57.76.57,2.17c0,1.93-.21,2.75-2.6,17.14a25,25,0,0,0-2.27-3.9,4,4,0,0,1-.34-2,19.92,19.92,0,0,1,1.3-6.91c.28-.59.53-.87.74-.87S94,7.06,94,8.47Z"/><path class="cls-2" d="M89,5.62l.66.1,3.74.58h0c-.21,0-.46.28-.74.87a19.92,19.92,0,0,0-1.3,6.91,4,4,0,0,0,.34,2A25,25,0,0,1,94,20l-4.43-.69a25.09,25.09,0,0,0-2.28-3.9,4.1,4.1,0,0,1-.33-2,19.73,19.73,0,0,1,1.3-6.91C88.54,5.86,88.81,5.58,89,5.62Z"/><path class="cls-4" d="M43.47,56.05l2.79,1.62h0a2.15,2.15,0,0,0-2.17.21A6.79,6.79,0,0,0,41,63.19a2.12,2.12,0,0,0-.9-2h0l-1.7-1a6.8,6.8,0,0,1,2.87-3.95A2.16,2.16,0,0,1,43.47,56.05Z"/><path class="cls-5" d="M47.16,59.65a6.65,6.65,0,0,1-.78,2.81L41,73.13a45.53,45.53,0,0,0-5.35-4.5,2.22,2.22,0,0,1-.78-1.9A6.77,6.77,0,0,1,38,61.42a2.15,2.15,0,0,1,2.17-.21,2.12,2.12,0,0,1,.9,2,6.79,6.79,0,0,1,3.06-5.31,2.15,2.15,0,0,1,2.17-.21A2.13,2.13,0,0,1,47.16,59.65Z"/><path class="cls-4" d="M34.9,66.73a2.22,2.22,0,0,0,.78,1.9A45.53,45.53,0,0,1,41,73.13l-2.8-1.62A44.4,44.4,0,0,0,32.89,67a2.23,2.23,0,0,1-.79-1.9,6.74,6.74,0,0,1,3.07-5.31,2.14,2.14,0,0,1,2.16-.22l1.1.63,1.7,1h0a2.15,2.15,0,0,0-2.17.21A6.77,6.77,0,0,0,34.9,66.73Z"/><path class="cls-1" d="M89.92,37.18V52.79c0,5.47-3.83,12.11-8.57,14.84l-2,1.16L74.6,80.24l-4.76-6-2,1.16-.58.31c-2.13,1.07-4.06,1.11-5.48.29L61.67,76c-1.49-.92-2.4-2.82-2.4-5.48V54.88c0-5.46,3.84-12.11,8.57-14.84l13.51-7.8c2.32-1.34,4.43-1.5,6-.66l.09.05C89,32.53,89.92,34.45,89.92,37.18Z"/><path class="cls-2" d="M54.83,72c-1.56-.89-2.51-2.82-2.51-5.54V50.87c0-5.47,3.83-12.11,8.57-14.85l13.51-7.8c2.37-1.37,4.51-1.49,6.06-.6l6.86,4c-1.54-.84-3.65-.68-6,.66L67.84,40c-4.73,2.73-8.57,9.38-8.57,14.84V70.49c0,2.66.91,4.56,2.4,5.48Z"/><path class="cls-2" d="M69.84,74.28l4.76,6-7-4-.38-.48.58-.31Z"/><path class="cls-3" d="M70.22,52.69a3.58,3.58,0,0,0-1.51,2.59v.4l-1.25.73a1.41,1.41,0,0,0-.68,1.07c0,.38.3.51.68.29L68.71,57v.41c0,.87.65,1.23,1.51.85l.17-.08V60.9c0,.38.31.51.68.29a1.41,1.41,0,0,0,.68-1.07v-2.5L75.47,56c.16.86,1,1.11,2,.53a4.23,4.23,0,0,0,2-3.21V47c0-1.13-.91-1.51-2-.87a4.37,4.37,0,0,0-2,2.86Zm5.22,1.93-5,2.23c-.19.08-.33,0-.33-.19V54.49a.76.76,0,0,1,.33-.56l5-3.59Zm1.36-6.1a1.41,1.41,0,0,1,.68-1.07c.37-.21.68-.08.68.29v6.34a1.4,1.4,0,0,1-.68,1.07c-.38.22-.68.09-.68-.29Z"/><path class="cls-5" d="M52.32,89.42v30.89L44.09,118,14.91,134.8c-2.28,1.31-4.33,1.44-5.82.57s-2.41-2.69-2.41-5.32V115.77c0-5.25,3.68-11.63,8.23-14.25L44.09,84.67c2.23-1.29,4.25-1.43,5.73-.62S52.32,86.74,52.32,89.42Z"/><path class="cls-4" d="M49.82,84.05c-1.48-.81-3.5-.67-5.73.62L14.91,101.52c-4.55,2.62-8.23,9-8.23,14.25v14.28c0,2.63.92,4.47,2.41,5.32h0l-6.68-3.86C.92,130.66,0,128.82,0,126.19V111.92c0-5.25,3.69-11.64,8.23-14.26L37.41,80.82c2.28-1.32,4.33-1.44,5.82-.58L49.82,84Z"/><path class="cls-3" d="M37.19,104.87c0-4.27-3.48-5.74-7.76-3.27a15,15,0,0,0-3.52,2.87,18.58,18.58,0,0,0-2.51,3.47,1.36,1.36,0,0,0-.33.15,2.31,2.31,0,0,0-1.13,1.77.6.6,0,0,0,.33.61,10.61,10.61,0,0,0-.6,3.36c0,4.28,3.48,5.75,7.76,3.28a15.52,15.52,0,0,0,3.9-3.31,17.6,17.6,0,0,0,2.07-3,.1.1,0,0,0,0,0,14.05,14.05,0,0,0,1.32-3.15l0-.05a10.52,10.52,0,0,0,.25-1.08,10.06,10.06,0,0,0,.16-1.12.34.34,0,0,0,0-.11C37.19,105.15,37.19,105,37.19,104.87Zm-.69.06-2.21,1.28c0-.35,0-.68-.07-1a2.21,2.21,0,0,0,.63-1.38c0-.61-.48-.82-1.08-.5a4.67,4.67,0,0,0-.67-1.19c.3-.27.59-.55.87-.83C35.44,101.68,36.41,102.94,36.5,104.93Zm-2.33-.72a.92.92,0,0,1-.45.71c-.25.15-.45.06-.45-.19a1,1,0,0,1,.45-.71C34,103.88,34.17,104,34.17,104.21Zm-.83-3-.59.56a2.43,2.43,0,0,0-.62-.42l-.13-.06A5.16,5.16,0,0,1,33.34,101.19Zm-3.57.91a2.12,2.12,0,0,1,2.28.24A20,20,0,0,1,29.77,104Zm0,2.53a21.64,21.64,0,0,0,2.67-1.91,3.89,3.89,0,0,1,.67,1.16,2.11,2.11,0,0,0-.51,1.24c0,.57.41.79.95.57,0,.29.05.6.06.91l-3.84,2.22Zm0,4.87,3.84-2.22a14.55,14.55,0,0,1-1.17,5.23h0a14.78,14.78,0,0,0-2.67,1.18v-1.11a2.32,2.32,0,0,0,.79-1.54.58.58,0,0,0-.79-.62Zm-.68-7v1.85a13.68,13.68,0,0,1-2.29,1A8.1,8.1,0,0,1,29.09,102.49Zm-2.87,2.4c.21-.23.43-.45.65-.66a14.4,14.4,0,0,0-.76,1.35l-.59.13C25.74,105.43,26,105.15,26.22,104.89Zm-3.15,3.87c.24-.14.45-.06.45.19a1,1,0,0,1-.45.71c-.25.15-.46.06-.46-.19A1,1,0,0,1,23.07,108.76Zm-.19,1.67.19-.09a2.34,2.34,0,0,0,1.12-1.78A.63.63,0,0,0,24,108a16.44,16.44,0,0,1,.93-1.47c.28,0,.57-.09.86-.16a15.56,15.56,0,0,0-.8,2.53c-.05.21.06.33.24.27a.32.32,0,0,0,.09,0,.74.74,0,0,0,.32-.45,15,15,0,0,1,.81-2.51A14.47,14.47,0,0,0,29.09,105v4.19l-3.84,2.22c0-.36,0-.72.07-1.09,0-.2-.11-.29-.29-.2a.69.69,0,0,0-.38.51c0,.39-.07.79-.08,1.17l-2.22,1.28A10.1,10.1,0,0,1,22.88,110.43Zm-.53,3.35,2.22-1.28a6.93,6.93,0,0,0,1.18,4.07c-.29.27-.58.55-.86.84C23.42,117,22.45,115.76,22.35,113.78Zm3.17,3.73c.19-.19.39-.37.59-.55a2.6,2.6,0,0,0,.74.48A5.06,5.06,0,0,1,25.52,117.51Zm3.57-.9a2.14,2.14,0,0,1-2.29-.24,21.1,21.1,0,0,1,2.29-1.62Zm0-2.53A20.64,20.64,0,0,0,26.42,116a6.35,6.35,0,0,1-1.17-3.88l3.84-2.22v.92h0a2.27,2.27,0,0,0-.79,1.54.58.58,0,0,0,.79.62Zm.34-1.93c-.25.14-.45,0-.45-.19a1,1,0,0,1,.45-.72c.25-.14.45,0,.45.19A1,1,0,0,1,29.43,112.15Zm.34,4.06v-1.85a14.36,14.36,0,0,1,2.28-1A7.9,7.9,0,0,1,29.77,116.21ZM33,113.42c-.31.36-.65.72-1,1a12.21,12.21,0,0,0,.74-1.34c.21,0,.41-.1.6-.13Zm1-1.25a7.3,7.3,0,0,0-.87.16,15.44,15.44,0,0,0,1.19-5.44l2.21-1.28a7.68,7.68,0,0,1-.13,1.13,13.06,13.06,0,0,1-.81,2.63l0,0A15.74,15.74,0,0,1,34,112.17Z"/><path class="cls-5" d="M113.24,88v21.86c0,7.66-5.37,17-12,20.79l-2.81,1.62-6.66,16L85.11,140l-2.8,1.61c-.27.16-.54.3-.81.43-3,1.51-5.69,1.56-7.68.41l-.16-.09c-2.08-1.29-3.36-3.94-3.36-7.68V112.8c0-7.65,5.38-17,12-20.79l18.93-10.93c3.25-1.87,6.2-2.09,8.35-.91l.13.07C111.9,81.49,113.24,84.18,113.24,88Z"/><path class="cls-4" d="M64.08,136.81c-2.17-1.25-3.51-3.95-3.51-7.77V107.18c0-7.66,5.37-17,12-20.79L91.5,75.46c3.32-1.92,6.32-2.09,8.48-.84l9.61,5.55c-2.15-1.18-5.1-1-8.35.91L82.31,92c-6.63,3.83-12,13.14-12,20.79v21.86c0,3.74,1.28,6.39,3.36,7.68Z"/><path class="cls-4" d="M85.11,140l6.66,8.34L82,142.7,81.5,142c.27-.13.54-.27.81-.43Z"/><path class="cls-3" d="M91.77,125.51a.77.77,0,0,1-.54-.22,66.31,66.31,0,0,0-7.82-6.58,4,4,0,0,1-1.49-3.44,10.76,10.76,0,0,1,4.93-8.54,3.92,3.92,0,0,1,4-.31,3,3,0,0,1,.73.59,10.65,10.65,0,0,1,4.36-5.51,3.52,3.52,0,0,1,5.7,3.29,10.32,10.32,0,0,1-1.24,4.51q-4,7.89-7.91,15.78a.81.81,0,0,1-.57.42Zm-2.52-17.94a3.39,3.39,0,0,0-1.63.51,9.35,9.35,0,0,0-4.14,7.19,2.58,2.58,0,0,0,.83,2.18,67.06,67.06,0,0,1,7.24,6L99,108.6a8.88,8.88,0,0,0,1.07-3.81,2,2,0,0,0-3.37-2A9.35,9.35,0,0,0,92.55,110,.78.78,0,0,1,91,110a2.5,2.5,0,0,0-.93-2.26A1.57,1.57,0,0,0,89.25,107.57Z"/><path class="cls-1" d="M98.14,164.18a5.76,5.76,0,0,1,.33,2.48,3.68,3.68,0,0,1,3.57-.21c1,.56,1.61,1.79,1.61,3.54a12.15,12.15,0,0,1-5.49,9.52q-10.75,6.23-21.53,12.43c-1.55.9-3,1-3.95.34a3.88,3.88,0,0,1-1.54-3.51A12.33,12.33,0,0,1,75.5,180c-1.93-4.74,1.89-12.95,7.08-15.95,2.07-1.19,3.94-1.32,5.3-.56l.05,0a4.42,4.42,0,0,1,1.95,2.73c2.3-3.36,5.26-4.53,7-3.53A2.83,2.83,0,0,1,98.14,164.18Z"/><path class="cls-2" d="M98.14,164.18l3.91,2.26h0a3.68,3.68,0,0,0-3.57.21A5.76,5.76,0,0,0,98.14,164.18Z"/><path class="cls-6" d="M87.18,157.14l9.74,5.62c-1.78-1-4.74.17-7,3.53a4.42,4.42,0,0,0-1.95-2.73l-.05,0-6.88-4a9.52,9.52,0,0,1,2.39-2.05A3.78,3.78,0,0,1,87.18,157.14Z"/><path class="cls-2" d="M78.23,158l2.77,1.6,6.88,4c-1.36-.76-3.23-.63-5.3.56-5.19,3-9,11.21-7.08,15.95l-9.74-5.62c-1.93-4.75,1.9-13,7.08-16,2.09-1.2,4-1.31,5.35-.52Z"/><path class="cls-6" d="M65.76,174.42,75.5,180a12.33,12.33,0,0,0-4.36,8.73,3.88,3.88,0,0,0,1.54,3.51h0L63,186.7a3.86,3.86,0,0,1-1.61-3.56A12.33,12.33,0,0,1,65.76,174.42Z"/><path class="cls-3" d="M83.75,179.94a4,4,0,0,1-1.91,3c-1,.61-1.9.24-1.9-.81a3.93,3.93,0,0,1,1.9-3C82.89,178.53,83.75,178.89,83.75,179.94Z"/><path class="cls-3" d="M89.79,176.45a4,4,0,0,1-1.91,3c-1,.61-1.9.25-1.9-.81a4,4,0,0,1,1.9-3C88.93,175,89.79,175.4,89.79,176.45Z"/><path class="cls-3" d="M95.83,173a4,4,0,0,1-1.91,3c-1,.61-1.9.25-1.9-.8a4,4,0,0,1,1.9-3C95,171.55,95.83,171.91,95.83,173Z"/><path class="cls-1" d="M151.74,90.59V101a13.28,13.28,0,0,1-6,10.4l-15.3,8.83-6,8.66V106.36a13.31,13.31,0,0,1,6-10.41l15.3-8.83a4.27,4.27,0,0,1,4.18-.45C151.05,87.28,151.74,88.64,151.74,90.59Z"/><path class="cls-2" d="M143.79,83.13l6.13,3.54a4.27,4.27,0,0,0-4.18.45L130.44,96a13.31,13.31,0,0,0-6,10.41v22.55l-6.27-3.62V102.74a13.28,13.28,0,0,1,6-10.4l15.3-8.83c1.66-1,3.16-1.05,4.25-.42Z"/><path class="cls-3" d="M136.19,108.77a5.75,5.75,0,0,0,2.12.55.27.27,0,0,0,.14,0,.43.43,0,0,0,.16-.14,27.45,27.45,0,0,0,2.11-3,12.5,12.5,0,0,0,2.14-6,2.35,2.35,0,0,0-1.29-2.38,3.6,3.6,0,0,0-3.12.51h0c-2.43,1.41-4.41,4.53-4.41,7a3.71,3.71,0,0,0,2.15,3.56Zm2.26-10a3.18,3.18,0,0,1,2.74-.45,2.07,2.07,0,0,1,1.13,2.09,12,12,0,0,1-2,5.56,24.68,24.68,0,0,1-1.89,2.7,5.76,5.76,0,0,1-1.88-.52,3.43,3.43,0,0,1-2-3.27A8,8,0,0,1,138.45,98.79Z"/><path class="cls-3" d="M140.87,101.51c0-1.44-1.24-1.83-2.66-.87a5,5,0,0,0-2.18,3.67,1.3,1.3,0,0,0,.71,1.3c1.14.48,3-.89,3.83-2.75A3.59,3.59,0,0,0,140.87,101.51Zm-4.3,2.48a3.92,3.92,0,0,1,1.88-3c1-.6,1.88-.24,1.88.79a3.9,3.9,0,0,1-1.88,3C137.41,105.39,136.57,105,136.57,104Z"/><path class="cls-5" d="M180.46,124v16.2c0,6-4.18,13.19-9.34,16.17l-23.76,13.72L138,183.53v-35c0-5.95,4.18-13.19,9.34-16.17l23.76-13.72c2.53-1.45,4.82-1.62,6.5-.71S180.46,121,180.46,124Z"/><path class="cls-4" d="M168.1,112.41l9.52,5.49c-1.68-.91-4-.74-6.5.71l-23.76,13.72c-5.16,3-9.34,10.22-9.34,16.17v35l-9.74-5.62v-35c0-5.95,4.18-13.19,9.34-16.17L161.38,113c2.58-1.48,4.92-1.62,6.6-.65Z"/><path class="cls-3" d="M168.77,132.51l-15.48,8.94-5.23-1a1.29,1.29,0,0,0-1,.5,1.93,1.93,0,0,0-.55,1.21v16.19c0,1.67,1.35,2.24,3,1.28l6.7-3.87,3.81-2.2,8.76-5.06a6.27,6.27,0,0,0,3-4.77v-10C171.8,132.12,170.44,131.54,168.77,132.51Zm1,12.4a2.16,2.16,0,0,1-1,1.65L160,151.62l-3.81,2.2-6.7,3.87c-.58.33-1,.13-1-.45V143.05l3.9.71a.81.81,0,0,0,.59-.14l15.82-9.13c.58-.34,1-.14,1,.44Z"/><path class="cls-3" d="M166,143.39,152.85,151a2.07,2.07,0,0,0-1,1.56c0,.55.45.74,1,.42L166,145.37a2,2,0,0,0,1-1.56C167,143.27,166.59,143.08,166,143.39Z"/><path class="cls-3" d="M152.85,148.5l11.87-6.85a2.06,2.06,0,0,0,1-1.56c0-.55-.44-.74-1-.42l-11.87,6.85a2.09,2.09,0,0,0-1,1.56C151.86,148.63,152.31,148.82,152.85,148.5Z"/><path class="cls-5" d="M147.54,72.25l-9.62,5.55c1.62-1,2.61-3.07,2.61-6V55.63c0-6-4.18-13.19-9.33-16.17L107.44,25.74c-2.53-1.46-4.82-1.62-6.5-.71l9.64-5.57c1.69-1,4-.83,6.6.66l23.76,13.72c5.15,3,9.33,10.21,9.33,16.17v16.2C150.27,69.18,149.23,71.27,147.54,72.25Z"/><path class="cls-4" d="M140.53,55.63v16.2c0,2.9-1,5-2.61,6l-.12.07c-1.69,1-4,.84-6.6-.65L107.44,63.5,98.1,66.16v-35c0-3,1.05-5.06,2.74-6l.1-.06c1.68-.91,4-.75,6.5.71L131.2,39.46C136.35,42.44,140.53,49.68,140.53,55.63Z"/><path class="cls-3" d="M125.25,56.09l-11-12.7a1.25,1.25,0,0,0-.84-.49.43.43,0,0,0-.43.49V56.08a1.62,1.62,0,0,0,.43,1,1.72,1.72,0,0,0,.42.36.82.82,0,0,0,.42.13h11c.26,0,.42-.19.42-.49A1.62,1.62,0,0,0,125.25,56.09Zm-7.16-.5h-3.43V45.83l8.47,9.77Z"/></g></g></svg>