<?xml version="1.0" encoding="utf-8"?>
<!-- Generator: Adobe Illustrator 22.1.0, SVG Export Plug-In . SVG Version: 6.00 Build 0)  -->
<svg version="1.1" id="Capa_1" xmlns="http://www.w3.org/2000/svg" width="315" height="75" xmlns:xlink="http://www.w3.org/1999/xlink" x="0px" y="0px"
	 viewBox="0 0 241 66" style="enable-background:new 0 0 241 66;" xml:space="preserve">
<style type="text/css">
	.st0{fill:#DA173E;}
	.st1{fill:#F7B900;}
	.st2{fill:#444242;}
	.st3{fill:#FFFFFF;}
</style>
<g>
	<g>
		<g>
			<g>
				<path class="st0" d="M24,40.2l0,2.4l-2.2,0l0-2.3c-2.1,0-3.7-0.5-5.1-1.9l1.9-2c0.9,0.9,2.1,1.2,3.4,1.2L22,33.8l-0.7-0.1
					c-1.3-0.2-2.3-0.6-3-1.2c-0.7-0.7-1.1-1.7-1.1-3c0-2.5,1.6-4.3,4.4-4.7l0-1.9l2.2,0l0,1.9c1.7,0.1,3.1,0.6,4.2,1.7l-1.9,1.9
					c-0.7-0.7-1.8-0.9-2.6-1l0.1,3.7l0.8,0.1c1.4,0.2,2.3,0.6,2.9,1.2c0.8,0.8,1.2,1.8,1.2,3.2C28.6,38.2,26.7,39.8,24,40.2z
					 M21.9,27.5c-1.2,0.2-1.8,1-1.8,1.9c0,0.4,0.1,0.8,0.5,1.1c0.3,0.3,0.8,0.5,1.4,0.6L21.9,27.5z M25.1,34.4
					c-0.4-0.4-1-0.5-1.5-0.5l0.1,3.7c1.3-0.2,2-0.8,2-1.9C25.6,35.2,25.5,34.7,25.1,34.4z"/>
			</g>
			<path class="st1" d="M26.8,10.3c0,0.5-0.6,0.9-1.2,0.9h-5.7c-0.7,0-1.2-0.4-1.2-0.9V6.9c0-0.5,0.6-0.9,1.2-0.9h5.7
				c0.7,0,1.2,0.4,1.2,0.9V10.3z"/>
			<g>
				<g>
					<path class="st0" d="M22.7,52.3c-10.8,0-19.7-8.8-19.7-19.7S11.9,13,22.7,13c1.6,0,2.9,1.3,2.9,2.9s-1.3,2.9-2.9,2.9
						c-7.7,0-13.9,6.2-13.9,13.9s6.2,13.9,13.9,13.9c1.6,0,2.9,1.3,2.9,2.9C25.6,51,24.3,52.3,22.7,52.3z"/>
				</g>
				<g>
					<path class="st1" d="M30.9,21c-0.3,0-0.5-0.1-0.7-0.2c-0.6-0.4-0.8-1.3-0.4-1.9l1.7-2.7c0.4-0.6,1.3-0.8,1.9-0.4
						c0.6,0.4,0.8,1.3,0.4,1.9l-1.7,2.7C31.8,20.8,31.3,21,30.9,21z"/>
				</g>
				<g>
					<path class="st1" d="M36.5,26.8c-0.5,0-1-0.3-1.2-0.7c-0.4-0.7-0.1-1.5,0.6-1.9l2.8-1.5c0.7-0.4,1.5-0.1,1.9,0.6
						s0.1,1.5-0.6,1.9l-2.8,1.5C36.9,26.7,36.7,26.8,36.5,26.8z"/>
				</g>
				<g>
					<path class="st1" d="M38.2,43.8c-0.2,0-0.5-0.1-0.7-0.2L34.8,42c-0.7-0.4-0.9-1.2-0.5-1.9c0.4-0.7,1.2-0.9,1.9-0.5l2.7,1.6
						c0.7,0.4,0.9,1.2,0.5,1.9C39.2,43.6,38.7,43.8,38.2,43.8z"/>
				</g>
				<g>
					<path class="st1" d="M31.4,50.2c-0.5,0-1-0.3-1.2-0.7l-1.5-2.8c-0.4-0.7-0.1-1.5,0.5-1.9c0.7-0.4,1.5-0.1,1.9,0.5l1.5,2.8
						c0.4,0.7,0.1,1.5-0.5,1.9C31.9,50.1,31.7,50.2,31.4,50.2z"/>
				</g>
				<g>
					<path class="st1" d="M41,33.9h-3.2c-0.8,0-1.4-0.6-1.4-1.4s0.6-1.4,1.4-1.4H41c0.8,0,1.4,0.6,1.4,1.4S41.8,33.9,41,33.9z"/>
				</g>
			</g>
		</g>
		<g>
			<path class="st2" d="M64.2,39.7c0.3,0.6,0.5,1.2,0.7,1.8c0.2,0.6,0.3,1.3,0.4,1.9c-1.1,0.4-2.1,0.7-3,0.8
				c-0.9,0.1-1.8,0.2-2.8,0.2c-1.8,0-3.4-0.3-4.7-0.9c-1.4-0.6-2.5-1.4-3.4-2.4s-1.6-2.3-2.1-3.7c-0.5-1.4-0.7-3-0.7-4.7
				c0-1.7,0.2-3.3,0.7-4.7c0.5-1.5,1.2-2.7,2.1-3.8c0.9-1.1,2.1-1.9,3.4-2.5c1.3-0.6,2.9-0.9,4.6-0.9c1,0,2,0.1,2.8,0.2
				c0.9,0.1,1.8,0.4,2.8,0.8c0,0.6-0.2,1.3-0.4,1.9c-0.2,0.6-0.4,1.2-0.7,1.8c-0.7-0.3-1.4-0.4-2-0.5c-0.6-0.1-1.3-0.2-2-0.2
				c-2,0-3.6,0.7-4.7,2c-1.1,1.3-1.6,3.3-1.6,5.9c0,5.2,2.2,7.8,6.6,7.8c0.8,0,1.5-0.1,2.1-0.2C62.8,40.2,63.4,40,64.2,39.7z"/>
			<path class="st2" d="M68.7,27.6c0.3-0.1,0.6-0.1,0.9-0.1c0.3,0,0.6,0,0.9,0c0.3,0,0.6,0,0.9,0.1c0.3,0,0.6,0.1,0.9,0.2
				c0.1,0.1,0.1,0.3,0.2,0.5c0.1,0.2,0.1,0.4,0.1,0.6c0,0.2,0.1,0.4,0.1,0.7c0,0.2,0.1,0.4,0.1,0.6c0.5-0.7,1-1.2,1.7-1.8
				c0.7-0.5,1.5-0.8,2.5-0.8c0.2,0,0.5,0,0.7,0c0.3,0,0.5,0.1,0.6,0.1c0,0.2,0.1,0.5,0.1,0.7c0,0.3,0,0.6,0,0.9c0,0.4,0,0.8,0,1.2
				c0,0.4-0.1,0.8-0.2,1.2c-0.2,0-0.5-0.1-0.8-0.1c-0.3,0-0.5,0-0.5,0c-0.4,0-0.8,0-1.2,0.1c-0.4,0.1-0.9,0.3-1.3,0.6
				c-0.4,0.3-0.7,0.8-1,1.4c-0.3,0.6-0.4,1.5-0.4,2.7v7.8c-0.4,0.1-0.8,0.1-1.1,0.1c-0.4,0-0.8,0-1.1,0c-0.4,0-0.7,0-1.1,0
				c-0.4,0-0.8-0.1-1.2-0.1V27.6z"/>
			<path class="st2" d="M84.6,37.2c0.1,1.3,0.5,2.2,1.3,2.8c0.8,0.6,1.9,0.9,3.2,0.9c0.7,0,1.5-0.1,2.2-0.2c0.8-0.1,1.5-0.3,2.1-0.6
				c0.2,0.4,0.4,0.9,0.6,1.5c0.2,0.6,0.3,1.2,0.3,1.9c-1.7,0.6-3.5,1-5.6,1c-1.5,0-2.8-0.2-3.9-0.6c-1.1-0.4-2-1-2.7-1.8
				c-0.7-0.8-1.2-1.6-1.5-2.7c-0.3-1-0.5-2.2-0.5-3.4c0-1.2,0.2-2.3,0.5-3.4c0.3-1.1,0.8-2,1.5-2.8c0.7-0.8,1.5-1.4,2.5-1.9
				c1-0.5,2.1-0.7,3.4-0.7c1.1,0,2.2,0.2,3.1,0.6c0.9,0.4,1.6,1,2.3,1.7c0.6,0.7,1.1,1.5,1.4,2.5c0.3,1,0.5,2,0.5,3.1
				c0,0.4,0,0.8,0,1.2c0,0.4-0.1,0.7-0.1,0.9H84.6z M91.1,34.1c0-1-0.3-1.8-0.8-2.5C89.7,31,89,30.7,88,30.7c-1.1,0-1.9,0.3-2.4,0.9
				c-0.6,0.6-0.9,1.4-1,2.5H91.1z"/>
		</g>
		<path class="st2" d="M107.5,40.7c-0.2,0-0.5,0-0.8,0c-0.6,0-1.1-0.1-1.7-0.2c-0.5-0.2-0.9-0.4-1.3-0.8c-0.4-0.4-0.7-0.8-0.9-1.4
			c-0.2-0.6-0.3-1.3-0.3-2.2c0-0.7,0.1-1.4,0.2-2c0.2-0.6,0.4-1.2,0.7-1.7c0.3-0.5,0.8-0.9,1.3-1.1c0.5-0.3,1.1-0.4,1.8-0.4
			c0.4,0,0.7,0,1,0c0.3,0,0.6,0.1,1,0.2v8.2h4.5V20.8c-0.4-0.1-0.8-0.1-1.1-0.1c-0.4,0-0.8,0-1.1,0c-0.4,0-0.7,0-1.1,0
			c-0.4,0-0.7,0.1-1.1,0.1v6.7c-0.4-0.1-0.8-0.2-1.2-0.2c-0.4,0-0.8,0-1.2,0c-1.3,0-2.4,0.2-3.5,0.7c-1,0.5-1.9,1.1-2.7,1.9
			c-0.7,0.8-1.3,1.7-1.7,2.8c-0.4,1.1-0.6,2.2-0.6,3.4c0,1.5,0.2,2.8,0.7,3.9c0.5,1.1,1.1,1.9,1.9,2.6c0.8,0.7,1.7,1.2,2.7,1.5
			c1,0.3,2.1,0.5,3.2,0.5c0.4,0,0.7,0,1.1,0V40.7z"/>
		<g>
			<path class="st2" d="M119,25c0.4,0,0.8,0,1.1,0c0.4,0,0.7,0,1.2,0c0.4,0,0.8-0.1,1.2-0.1c0.1-0.4,0.1-0.7,0.1-1.1
				c0-0.4,0-0.7,0-1c0-0.4,0-0.7,0-1.1c0-0.3-0.1-0.7-0.1-1.1c-0.4-0.1-0.8-0.1-1.2-0.1c-0.4,0-0.8,0-1.2,0c-0.3,0-0.7,0-1.1,0
				c-0.4,0-0.8,0.1-1.2,0.1c-0.1,0.7-0.2,1.5-0.2,2.1c0,0.7,0.1,1.4,0.2,2.1C118.1,24.9,118.5,25,119,25z"/>
			<path class="st2" d="M116.3,31.1h2.1v8.2h4.4V27.6h-6.5c-0.1,0.6-0.2,1.1-0.2,1.7c0,0.3,0,0.6,0,0.9S116.3,30.8,116.3,31.1z"/>
		</g>
		<path class="st2" d="M131.3,39.3l0.3-10.9l4.3,10.9h3.6l4.6-10.7l0.4,10.7h4.4l-0.9-18c-0.7-0.1-1.5-0.2-2.3-0.2s-1.5,0.1-2.2,0.2
			l-5.4,13.1l-5.2-13.1c-0.8-0.1-1.6-0.2-2.4-0.2c-0.8,0-1.6,0.1-2.4,0.2l-0.7,18H131.3z"/>
		<g>
			<path class="st2" d="M154.7,25c0.4,0,0.8,0,1.1,0c0.4,0,0.7,0,1.2,0c0.4,0,0.8-0.1,1.2-0.1c0.1-0.4,0.1-0.7,0.1-1.1
				c0-0.4,0-0.7,0-1c0-0.4,0-0.7,0-1.1s-0.1-0.7-0.1-1.1c-0.4-0.1-0.8-0.1-1.2-0.1c-0.4,0-0.8,0-1.2,0c-0.3,0-0.7,0-1.1,0
				c-0.4,0-0.8,0.1-1.2,0.1c-0.1,0.7-0.2,1.5-0.2,2.1c0,0.7,0.1,1.4,0.2,2.1C153.9,24.9,154.2,25,154.7,25z"/>
			<path class="st2" d="M152,31.1h2.1v8.2h4.4V27.6H152c-0.1,0.6-0.2,1.1-0.2,1.7c0,0.3,0,0.6,0,0.9S152,30.8,152,31.1z"/>
		</g>
		<path class="st2" d="M167.5,39.3v-3.8c0-0.9,0.1-1.6,0.3-2.2c0.2-0.6,0.4-1,0.7-1.3c0.3-0.3,0.7-0.5,1-0.6
			c0.4-0.1,0.8-0.2,1.1-0.2c0.9,0,1.5,0.3,1.8,0.9c0.3,0.6,0.5,1.5,0.5,2.6v4.5h4.5v-5.7c0-2.2-0.5-3.8-1.4-4.8
			c-0.9-1-2.3-1.5-4.2-1.5c-0.6,0-1.1,0.1-1.6,0.2c-0.5,0.2-0.9,0.4-1.3,0.6c-0.4,0.3-0.7,0.5-1,0.9c-0.3,0.3-0.6,0.6-0.8,1
			c0-0.1,0-0.3-0.1-0.5c0-0.2-0.1-0.4-0.1-0.7c0-0.2-0.1-0.4-0.1-0.6c-0.1-0.2-0.1-0.4-0.2-0.5c-0.3-0.1-0.6-0.1-0.9-0.1
			c-0.3,0-0.6,0-1,0c-0.4,0-0.7,0-1,0s-0.6,0.1-0.9,0.1v11.6H167.5z"/>
		<g>
			<path class="st2" d="M186.4,39.3c-0.1-0.2-0.2-0.5-0.3-0.8c-0.1-0.6-0.2-1.3-0.2-2.1v-8.7c-0.8-0.1-1.5-0.2-2.3-0.2
				c-0.7,0-1.5,0.1-2.3,0.2v8.8c0,1.1,0.1,2,0.3,2.8H186.4z"/>
			<path class="st2" d="M195.8,39.3V27.6c-0.8-0.1-1.5-0.2-2.3-0.2c-0.7,0-1.5,0.1-2.2,0.2v11.6H195.8z"/>
		</g>
		<path class="st2" d="M200.3,31.1v7.4c0,0.3,0,0.5,0.1,0.7h4.6c0-0.1,0-0.1-0.1-0.1c-0.1-0.4-0.2-0.9-0.2-1.6v-6.5h3.8
			c0.1-0.3,0.1-0.6,0.1-0.9c0-0.3,0-0.6,0-0.9c0-0.3,0-0.5,0-0.8c0-0.3-0.1-0.5-0.1-0.9h-3.8v-4.8H204l-5.9,7.6l0.2,0.6H200.3z"/>
		<path class="st2" d="M216.2,39.3c-0.4-0.8-0.6-2-0.6-3.4c0-1.7,0.3-2.9,0.8-3.8c0.5-0.9,1.4-1.3,2.5-1.3c1.2,0,2,0.4,2.6,1.3
			c0.5,0.9,0.8,2.1,0.8,3.8c0,1.4-0.2,2.5-0.6,3.4h4.7c0.3-1,0.5-2.2,0.5-3.4c0-1.2-0.2-2.3-0.5-3.4c-0.3-1.1-0.8-2-1.5-2.7
			c-0.7-0.8-1.5-1.4-2.5-1.8c-1-0.4-2.2-0.7-3.5-0.7c-1.3,0-2.5,0.2-3.5,0.7c-1,0.4-1.8,1.1-2.4,1.8c-0.6,0.8-1.1,1.7-1.5,2.7
			c-0.3,1.1-0.5,2.2-0.5,3.4c0,1.2,0.2,2.3,0.5,3.4H216.2z"/>
	</g>
	<g>
		<g>
			<rect x="108.6" y="40.4" class="st0" width="127.4" height="21.6"/>
		</g>
		<g>
			<path class="st3" d="M115.9,55.5c-0.6-0.2-1.2-0.5-1.6-0.9c-0.1-0.1-0.2-0.3-0.2-0.5c0-0.1,0-0.2,0.1-0.3
				c0.1-0.1,0.2-0.1,0.3-0.1c0.1,0,0.3,0.1,0.4,0.2c0.9,0.7,1.9,1,3,1c0.8,0,1.4-0.2,1.9-0.5c0.4-0.3,0.7-0.8,0.7-1.3
				c0-0.3-0.1-0.6-0.3-0.8c-0.2-0.2-0.5-0.4-0.8-0.5c-0.3-0.1-0.8-0.3-1.4-0.4c-0.8-0.2-1.4-0.4-1.9-0.6c-0.5-0.2-0.9-0.5-1.2-0.9
				c-0.3-0.4-0.5-0.9-0.5-1.4c0-0.6,0.2-1.1,0.5-1.5c0.3-0.4,0.7-0.8,1.3-1c0.6-0.2,1.2-0.4,1.9-0.4c0.7,0,1.3,0.1,1.9,0.3
				c0.6,0.2,1.1,0.5,1.4,0.9c0.2,0.2,0.2,0.3,0.2,0.5c0,0.1,0,0.2-0.1,0.3c-0.1,0.1-0.2,0.1-0.3,0.1c-0.1,0-0.2-0.1-0.4-0.2
				c-0.5-0.4-0.9-0.6-1.3-0.8c-0.4-0.2-0.9-0.2-1.4-0.2c-0.8,0-1.4,0.2-1.8,0.5c-0.4,0.3-0.7,0.8-0.7,1.4c0,0.5,0.2,0.9,0.6,1.1
				c0.4,0.3,1,0.5,1.8,0.7c0.9,0.2,1.5,0.4,2,0.6c0.5,0.2,0.9,0.4,1.2,0.8c0.3,0.4,0.5,0.8,0.5,1.4c0,0.6-0.2,1-0.5,1.5
				c-0.3,0.4-0.7,0.8-1.3,1c-0.6,0.2-1.2,0.4-1.9,0.4C117.2,55.9,116.5,55.8,115.9,55.5z"/>
			<path class="st3" d="M133.6,45.8c0.1,0.1,0.1,0.3,0.1,0.4v9c0,0.2,0,0.3-0.1,0.4c-0.1,0.1-0.2,0.2-0.4,0.2s-0.3-0.1-0.4-0.2
				c-0.1-0.1-0.1-0.2-0.1-0.4V48l-3.1,5.9c-0.1,0.3-0.3,0.4-0.6,0.4c-0.2,0-0.4-0.1-0.6-0.4l-3.1-5.8v7.2c0,0.2,0,0.3-0.1,0.4
				c-0.1,0.1-0.2,0.2-0.4,0.2c-0.2,0-0.3-0.1-0.4-0.2c-0.1-0.1-0.1-0.2-0.1-0.4v-9c0-0.2,0.1-0.3,0.2-0.4c0.1-0.1,0.2-0.2,0.4-0.2
				c0.2,0,0.4,0.1,0.6,0.4l3.6,6.9l3.6-6.9c0.1-0.2,0.2-0.3,0.2-0.3c0.1-0.1,0.2-0.1,0.3-0.1C133.4,45.7,133.5,45.7,133.6,45.8z"/>
			<path class="st3" d="M145.8,55.3c0,0.1-0.1,0.3-0.2,0.4c-0.1,0.1-0.2,0.1-0.4,0.1c-0.2,0-0.4-0.1-0.5-0.3l-1-2.3h-5.3l-1,2.3
				c-0.1,0.2-0.3,0.3-0.5,0.3c-0.2,0-0.3,0-0.4-0.1s-0.2-0.2-0.2-0.4c0-0.1,0-0.2,0.1-0.2l4.1-9c0.1-0.1,0.1-0.2,0.3-0.3
				c0.1-0.1,0.2-0.1,0.4-0.1c0.1,0,0.3,0,0.4,0.1c0.1,0.1,0.2,0.2,0.3,0.3l4.1,9C145.8,55.2,145.8,55.2,145.8,55.3z M138.8,52.2h4.5
				l-2.3-5.1L138.8,52.2z"/>
			<path class="st3" d="M156,55.4c0,0.1-0.1,0.3-0.2,0.3c-0.1,0.1-0.2,0.1-0.4,0.1c-0.2,0-0.4-0.1-0.5-0.3l-1.9-3
				c-0.2-0.4-0.5-0.7-0.8-0.8c-0.3-0.1-0.6-0.2-1.1-0.2h-1.8v3.7c0,0.2-0.1,0.3-0.2,0.4c-0.1,0.1-0.2,0.2-0.4,0.2
				c-0.2,0-0.3-0.1-0.4-0.2c-0.1-0.1-0.2-0.3-0.2-0.4v-8.9c0-0.2,0.1-0.3,0.2-0.4c0.1-0.1,0.3-0.2,0.4-0.2h3.5
				c1.1,0,1.9,0.2,2.5,0.7c0.6,0.5,0.9,1.2,0.9,2.1c0,0.8-0.2,1.4-0.7,1.9c-0.5,0.5-1.1,0.8-2,0.9c0.2,0.1,0.4,0.2,0.6,0.4
				c0.2,0.2,0.4,0.4,0.6,0.7l1.6,2.6C156,55.1,156,55.2,156,55.4z M152.3,50.6c0.8,0,1.4-0.2,1.7-0.5c0.4-0.3,0.6-0.8,0.6-1.5
				c0-0.6-0.2-1.1-0.6-1.4c-0.4-0.3-1-0.5-1.7-0.5h-2.9v3.8H152.3z"/>
			<path class="st3" d="M161.2,55.7c-0.1-0.1-0.2-0.3-0.2-0.4v-8.5h-3.1c-0.2,0-0.3,0-0.4-0.1c-0.1-0.1-0.1-0.2-0.1-0.4
				c0-0.2,0-0.3,0.1-0.4c0.1-0.1,0.2-0.1,0.4-0.1h7.3c0.2,0,0.3,0,0.4,0.1c0.1,0.1,0.1,0.2,0.1,0.4c0,0.2,0,0.3-0.1,0.4
				c-0.1,0.1-0.2,0.1-0.4,0.1h-3.1v8.5c0,0.2-0.1,0.3-0.2,0.4c-0.1,0.1-0.2,0.2-0.4,0.2C161.4,55.8,161.3,55.8,161.2,55.7z"/>
			<path class="st3" d="M168.1,55.7c-0.1-0.1-0.2-0.3-0.2-0.4v-8.9c0-0.2,0.1-0.3,0.2-0.4c0.1-0.1,0.3-0.2,0.4-0.2h3.4
				c1,0,1.9,0.3,2.4,0.8c0.6,0.5,0.9,1.2,0.9,2.2c0,0.9-0.3,1.7-0.9,2.2c-0.6,0.5-1.4,0.8-2.4,0.8h-2.8v3.6c0,0.2-0.1,0.3-0.2,0.4
				c-0.1,0.1-0.2,0.2-0.4,0.2C168.3,55.8,168.2,55.8,168.1,55.7z M171.8,50.7c1.5,0,2.3-0.7,2.3-2c0-1.3-0.8-2-2.3-2h-2.7v4H171.8z"
				/>
			<path class="st3" d="M186.1,45.8c0.1,0.1,0.1,0.3,0.1,0.4v9c0,0.2,0,0.3-0.1,0.4c-0.1,0.1-0.2,0.2-0.4,0.2
				c-0.2,0-0.3-0.1-0.4-0.2c-0.1-0.1-0.2-0.3-0.2-0.4v-4.1h-6v4.1c0,0.2-0.1,0.3-0.2,0.4c-0.1,0.1-0.2,0.2-0.4,0.2
				c-0.2,0-0.3-0.1-0.4-0.2c-0.1-0.1-0.1-0.3-0.1-0.4v-9c0-0.2,0-0.3,0.1-0.4c0.1-0.1,0.2-0.2,0.4-0.2c0.2,0,0.3,0.1,0.4,0.2
				c0.1,0.1,0.2,0.3,0.2,0.4v3.9h6v-3.9c0-0.2,0.1-0.3,0.2-0.4c0.1-0.1,0.2-0.2,0.4-0.2C185.8,45.7,186,45.7,186.1,45.8z"/>
			<path class="st3" d="M191.3,55.2c-0.7-0.4-1.2-1-1.6-1.8c-0.4-0.8-0.6-1.7-0.6-2.7c0-1,0.2-2,0.5-2.7c0.4-0.8,0.9-1.4,1.6-1.8
				c0.7-0.4,1.5-0.6,2.4-0.6c0.9,0,1.7,0.2,2.4,0.6c0.7,0.4,1.2,1,1.6,1.8c0.4,0.8,0.5,1.7,0.5,2.7c0,1-0.2,1.9-0.6,2.7
				c-0.4,0.8-0.9,1.4-1.6,1.8c-0.7,0.4-1.5,0.6-2.4,0.6C192.8,55.9,192,55.7,191.3,55.2z M196.2,53.8c0.6-0.7,0.9-1.7,0.9-3.1
				c0-1.3-0.3-2.3-0.9-3.1c-0.6-0.7-1.4-1.1-2.5-1.1c-1.1,0-1.9,0.4-2.5,1.1c-0.6,0.7-0.9,1.7-0.9,3c0,1.3,0.3,2.3,0.9,3.1
				c0.6,0.7,1.4,1.1,2.5,1.1C194.8,54.9,195.6,54.5,196.2,53.8z"/>
			<path class="st3" d="M209.1,45.8c0.1,0.1,0.1,0.3,0.1,0.4v9c0,0.2,0,0.3-0.1,0.4c-0.1,0.1-0.2,0.2-0.4,0.2
				c-0.2,0-0.3-0.1-0.5-0.2l-5.9-7.9v7.5c0,0.2,0,0.3-0.1,0.4c-0.1,0.1-0.2,0.2-0.4,0.2s-0.3-0.1-0.4-0.2c-0.1-0.1-0.1-0.3-0.1-0.4
				v-9c0-0.2,0-0.3,0.1-0.4c0.1-0.1,0.2-0.2,0.4-0.2c0.2,0,0.3,0.1,0.5,0.2l5.9,7.9v-7.5c0-0.2,0-0.3,0.1-0.4
				c0.1-0.1,0.2-0.2,0.4-0.2S209,45.7,209.1,45.8z"/>
			<path class="st3" d="M212.7,55.6c-0.1-0.1-0.2-0.2-0.2-0.4v-8.9c0-0.2,0.1-0.3,0.2-0.4c0.1-0.1,0.3-0.2,0.4-0.2h5.3
				c0.2,0,0.3,0,0.4,0.1c0.1,0.1,0.1,0.2,0.1,0.4c0,0.2,0,0.3-0.1,0.4c-0.1,0.1-0.2,0.1-0.4,0.1h-4.8v3.5h4.5c0.2,0,0.3,0,0.4,0.1
				c0.1,0.1,0.1,0.2,0.1,0.4c0,0.2,0,0.3-0.1,0.4c-0.1,0.1-0.2,0.1-0.4,0.1h-4.5v3.6h4.8c0.2,0,0.3,0,0.4,0.1
				c0.1,0.1,0.1,0.2,0.1,0.4c0,0.2,0,0.3-0.1,0.4c-0.1,0.1-0.2,0.1-0.4,0.1h-5.3C213,55.8,212.8,55.7,212.7,55.6z"/>
			<path class="st3" d="M222.7,55.5c-0.6-0.2-1.2-0.5-1.6-0.9c-0.1-0.1-0.2-0.3-0.2-0.5c0-0.1,0-0.2,0.1-0.3
				c0.1-0.1,0.2-0.1,0.3-0.1c0.1,0,0.3,0.1,0.4,0.2c0.9,0.7,1.9,1,3,1c0.8,0,1.4-0.2,1.9-0.5c0.4-0.3,0.7-0.8,0.7-1.3
				c0-0.3-0.1-0.6-0.3-0.8c-0.2-0.2-0.5-0.4-0.8-0.5c-0.3-0.1-0.8-0.3-1.4-0.4c-0.8-0.2-1.4-0.4-1.9-0.6c-0.5-0.2-0.9-0.5-1.2-0.9
				c-0.3-0.4-0.5-0.9-0.5-1.4c0-0.6,0.2-1.1,0.5-1.5c0.3-0.4,0.7-0.8,1.3-1c0.6-0.2,1.2-0.4,1.9-0.4c0.7,0,1.3,0.1,1.9,0.3
				c0.6,0.2,1.1,0.5,1.4,0.9c0.2,0.2,0.2,0.3,0.2,0.5c0,0.1,0,0.2-0.1,0.3c-0.1,0.1-0.2,0.1-0.3,0.1c-0.1,0-0.2-0.1-0.4-0.2
				c-0.5-0.4-0.9-0.6-1.3-0.8c-0.4-0.2-0.9-0.2-1.4-0.2c-0.8,0-1.4,0.2-1.8,0.5c-0.4,0.3-0.7,0.8-0.7,1.4c0,0.5,0.2,0.9,0.6,1.1
				c0.4,0.3,1,0.5,1.8,0.7c0.9,0.2,1.5,0.4,2,0.6c0.5,0.2,0.9,0.4,1.2,0.8c0.3,0.4,0.5,0.8,0.5,1.4c0,0.6-0.2,1-0.5,1.5
				c-0.3,0.4-0.7,0.8-1.3,1c-0.6,0.2-1.2,0.4-1.9,0.4C224,55.9,223.3,55.8,222.7,55.5z"/>
		</g>
	</g>
</g>
</svg>
