<svg xmlns="http://www.w3.org/2000/svg" viewBox="0 0 491.16 118.34"><defs><style>.cls-1{fill:#e12144;}.cls-2,.cls-3{fill:#ffb200;}.cls-2{stroke:#ffb200;stroke-width:0.56px;}.cls-4{fill:#434040;}.cls-5{fill:#fff;}</style></defs><title>logo-m</title><g id="Capa_2" data-name="Capa 2"><g id="Capa_1-2" data-name="Capa 1"><path class="cls-1" d="M44.18,72.48l.08,5-4.55.07-.08-4.87c-4.33-.06-7.74-1.14-10.72-4.07l4-4.12a10.32,10.32,0,0,0,7.22,2.59L40,59l-1.44-.16a10.71,10.71,0,0,1-6.27-2.6A8.37,8.37,0,0,1,29.88,50c-.09-5.19,3.37-9.08,9.22-9.8L39,36.1,43.6,36l.06,4a13.19,13.19,0,0,1,9,3.55l-3.91,4a9,9,0,0,0-5.58-2.07l.12,7.85L45,53.6c2.94.4,4.8,1.19,6.18,2.43,1.74,1.6,2.54,3.88,2.59,6.73C53.82,68.26,49.81,71.71,44.18,72.48Zm-4.4-26.87c-2.61.4-3.89,2-3.86,4a3.08,3.08,0,0,0,1,2.29,5.34,5.34,0,0,0,3,1.21Zm6.78,14.73a5.48,5.48,0,0,0-3.22-1.12L43.46,67c2.7-.36,4.17-1.73,4.14-3.94A3.59,3.59,0,0,0,46.56,60.34Z"/><path class="cls-2" d="M50.08,9.34c0,1.1-1.17,2-2.6,2H35.42c-1.43,0-2.6-.89-2.6-2V2.27c0-1.1,1.17-2,2.6-2H47.48c1.43,0,2.6.89,2.6,2Z"/><path class="cls-1" d="M41.48,98.05a41.49,41.49,0,0,1,0-83,6.07,6.07,0,1,1,0,12.13,29.36,29.36,0,0,0,0,58.71,6.07,6.07,0,1,1,0,12.13Z"/><path class="cls-3" d="M58.65,32a2.81,2.81,0,0,1-1.54-.45,2.9,2.9,0,0,1-.92-4l3.53-5.65A2.91,2.91,0,0,1,64.66,25l-3.54,5.65A2.91,2.91,0,0,1,58.65,32Z"/><path class="cls-3" d="M70.4,44.17a2.92,2.92,0,0,1-1.34-5.5L75,35.61a2.91,2.91,0,1,1,2.68,5.17l-5.92,3.06A3,3,0,0,1,70.4,44.17Z"/><path class="cls-3" d="M74.18,80.12a2.92,2.92,0,0,1-1.47-.39L67,76.36a2.91,2.91,0,0,1,2.94-5l5.75,3.37a2.91,2.91,0,0,1-1.47,5.42Z"/><path class="cls-3" d="M59.82,93.49A2.91,2.91,0,0,1,57.27,92l-3.22-5.84a2.91,2.91,0,0,1,5.09-2.82l3.23,5.84a2.92,2.92,0,0,1-2.55,4.32Z"/><path class="cls-3" d="M80.09,59.26H73.42a2.91,2.91,0,0,1,0-5.82h6.67a2.91,2.91,0,0,1,0,5.82Z"/><path class="cls-4" d="M128.84,71.52a27.07,27.07,0,0,1,1.44,3.85,27.77,27.77,0,0,1,.84,4A31,31,0,0,1,124.85,81a41.56,41.56,0,0,1-6,.41,25.12,25.12,0,0,1-10-1.85,19.73,19.73,0,0,1-7.2-5.15,22.14,22.14,0,0,1-4.39-7.88,32.07,32.07,0,0,1-1.47-9.91,31,31,0,0,1,1.54-9.95,23.09,23.09,0,0,1,4.46-7.94A20,20,0,0,1,109,33.53a23.83,23.83,0,0,1,9.69-1.88,40.31,40.31,0,0,1,5.93.41,25.38,25.38,0,0,1,5.86,1.67,14.63,14.63,0,0,1-.81,3.92c-.44,1.27-.93,2.56-1.47,3.85A31.7,31.7,0,0,0,124,40.36a24.3,24.3,0,0,0-4.29-.33q-6.44,0-9.88,4.19c-2.31,2.79-3.45,6.93-3.45,12.43Q106.4,73,120.26,73a25.39,25.39,0,0,0,4.36-.33A27.85,27.85,0,0,0,128.84,71.52Z"/><path class="cls-4" d="M138.42,46c.67-.13,1.31-.23,1.91-.3a17.23,17.23,0,0,1,2-.1,14.17,14.17,0,0,1,2,.13c.65.09,1.29.21,1.91.34a3.58,3.58,0,0,1,.37,1c.11.43.21.87.3,1.34s.17.94.24,1.41.12.86.17,1.17a17.39,17.39,0,0,1,3.61-3.72,8.59,8.59,0,0,1,5.36-1.64c.45,0,1,0,1.55.07a5.49,5.49,0,0,1,1.27.2,14.21,14.21,0,0,1,.2,1.54c0,.58.07,1.18.07,1.81s0,1.58-.1,2.48a18,18,0,0,1-.37,2.54,9.17,9.17,0,0,0-1.64-.13h-1.11a16.37,16.37,0,0,0-2.55.23,5.94,5.94,0,0,0-2.68,1.24,7.45,7.45,0,0,0-2.11,3,15.09,15.09,0,0,0-.83,5.63V80.7c-.81.13-1.61.22-2.42.27s-1.58.06-2.34.06-1.53,0-2.31-.06-1.6-.14-2.45-.27Z"/><path class="cls-4" d="M171.92,66.23q.27,4,2.82,5.83a11.35,11.35,0,0,0,6.7,1.81,27.13,27.13,0,0,0,9.18-1.68,15.77,15.77,0,0,1,1.27,3.22,16.11,16.11,0,0,1,.6,4,32.61,32.61,0,0,1-11.79,2,22.9,22.9,0,0,1-8.27-1.34,14.25,14.25,0,0,1-8.85-9.38,23.75,23.75,0,0,1-1-7.17,23.2,23.2,0,0,1,1.08-7.17,16.55,16.55,0,0,1,3.18-5.83A15.16,15.16,0,0,1,172,46.63a17.18,17.18,0,0,1,7.27-1.44,15.45,15.45,0,0,1,6.44,1.27A14.21,14.21,0,0,1,190.52,50a14.73,14.73,0,0,1,3,5.25,20.83,20.83,0,0,1,1,6.54c0,.85,0,1.68-.1,2.51a18.9,18.9,0,0,1-.23,2Zm13.6-6.64a8.41,8.41,0,0,0-1.77-5.19,5.65,5.65,0,0,0-4.59-2,6.61,6.61,0,0,0-5.09,1.88A8.81,8.81,0,0,0,172,59.59Z"/><path class="cls-4" d="M220.23,73.52c-.51,0-1,.08-1.61.08a11.75,11.75,0,0,1-3.48-.5,6.94,6.94,0,0,1-2.78-1.65,7.64,7.64,0,0,1-1.84-3,14,14,0,0,1-.67-4.65,17.56,17.56,0,0,1,.5-4.26,10.35,10.35,0,0,1,1.57-3.55,8.09,8.09,0,0,1,2.72-2.41,7.88,7.88,0,0,1,3.85-.9,14.72,14.72,0,0,1,4.29.53V70.48h9.45V31.65c-.81-.13-1.61-.22-2.42-.27s-1.58-.06-2.34-.06-1.53,0-2.31.06-1.58.14-2.38.27V45.86a13.72,13.72,0,0,0-2.51-.44c-.87-.07-1.71-.1-2.52-.1a18,18,0,0,0-7.3,1.44,16.74,16.74,0,0,0-5.59,3.92,17.33,17.33,0,0,0-3.56,5.86,21,21,0,0,0-1.24,7.21,20.48,20.48,0,0,0,1.45,8.17,14.41,14.41,0,0,0,3.92,5.46,15.63,15.63,0,0,0,5.72,3.09,23.93,23.93,0,0,0,6.8,1c.79,0,1.55,0,2.28,0Z"/><path class="cls-4" d="M244.35,40.43c.9,0,1.7.07,2.42.07s1.57,0,2.44-.07a18.18,18.18,0,0,0,2.45-.27,22.27,22.27,0,0,0,.27-2.27q.06-1.14.06-2.22c0-.76,0-1.5-.06-2.24a22.23,22.23,0,0,0-.27-2.25c-.76-.13-1.59-.23-2.48-.3s-1.72-.1-2.48-.1-1.51,0-2.38.1-1.69.17-2.45.3a27.5,27.5,0,0,0-.4,4.49,26.56,26.56,0,0,0,.4,4.49A18.28,18.28,0,0,0,244.35,40.43Z"/><path class="cls-4" d="M238.79,53.23h4.49V70.48h9.32V46H238.79a15.65,15.65,0,0,0-.4,3.55,17.3,17.3,0,0,0,.1,1.85A16.83,16.83,0,0,0,238.79,53.23Z"/><path class="cls-4" d="M270.3,70.48l.65-23,9.08,23h7.59l9.73-22.54.83,22.54h9.21l-1.8-38a28.63,28.63,0,0,0-4.89-.41,24.13,24.13,0,0,0-4.62.41l-11.39,27.6-11.06-27.6a32.63,32.63,0,0,0-5.15-.41,34.43,34.43,0,0,0-5.16.41l-1.49,38Z"/><path class="cls-4" d="M319.66,40.43c.9,0,1.7.07,2.42.07s1.57,0,2.44-.07a18.18,18.18,0,0,0,2.45-.27,22.27,22.27,0,0,0,.27-2.27q.06-1.14.06-2.22c0-.76,0-1.5-.06-2.24a22.23,22.23,0,0,0-.27-2.25c-.76-.13-1.59-.23-2.48-.3s-1.72-.1-2.48-.1-1.51,0-2.38.1-1.69.17-2.44.3a26.48,26.48,0,0,0-.41,4.49,25.59,25.59,0,0,0,.41,4.49A18,18,0,0,0,319.66,40.43Z"/><path class="cls-4" d="M314.1,53.23h4.49V70.48h9.32V46H314.1a15.65,15.65,0,0,0-.4,3.55,17.3,17.3,0,0,0,.1,1.85A16.83,16.83,0,0,0,314.1,53.23Z"/><path class="cls-4" d="M346.8,70.48v-8a14.28,14.28,0,0,1,.6-4.55A6.91,6.91,0,0,1,349,55.21a4.83,4.83,0,0,1,2.17-1.31,9,9,0,0,1,2.35-.34,4,4,0,0,1,3.85,1.95,11.34,11.34,0,0,1,1.11,5.56v9.41H368v-12q0-6.9-3-10.12t-8.88-3.21a10.76,10.76,0,0,0-3.41.5A11.68,11.68,0,0,0,349.92,47a11.11,11.11,0,0,0-2.18,1.81,15.75,15.75,0,0,0-1.61,2c-.05-.32-.1-.7-.17-1.14s-.14-.91-.23-1.38-.19-.91-.3-1.34a4.6,4.6,0,0,0-.37-1c-.63-.13-1.23-.23-1.81-.3a17.06,17.06,0,0,0-2-.1,19,19,0,0,0-2.08.1c-.62.07-1.25.17-1.87.3V70.48Z"/><path class="cls-4" d="M386.53,70.48a8.19,8.19,0,0,1-.57-1.61,19.48,19.48,0,0,1-.43-4.52V46A28.52,28.52,0,0,0,376,46V64.62a29.82,29.82,0,0,0,.53,5.86Z"/><path class="cls-4" d="M406.3,70.48V46a28.76,28.76,0,0,0-4.76-.4,28.3,28.3,0,0,0-4.69.4V70.48Z"/><path class="cls-4" d="M415.88,53.23V68.91c0,.56.07,1,.1,1.57h9.72c0-.11-.08-.19-.11-.3a13.82,13.82,0,0,1-.33-3.35V53.23h8.11a18,18,0,0,0,.26-1.94c.05-.59.07-1.19.07-1.81s0-1.14-.07-1.68a15.75,15.75,0,0,0-.26-1.81h-8.11V35.87h-1.54l-12.53,16,.33,1.34Z"/><path class="cls-4" d="M449.51,70.48a17.71,17.71,0,0,1-1.2-7.07q0-5.22,1.64-8a6.56,6.56,0,0,1,10.72,0c1.1,1.85,1.64,4.52,1.64,8a17.54,17.54,0,0,1-1.2,7.07H471a23.92,23.92,0,0,0,1-7.07,24.9,24.9,0,0,0-1-7.17,15.81,15.81,0,0,0-3.09-5.79,14.47,14.47,0,0,0-5.22-3.86,18.08,18.08,0,0,0-7.37-1.4,17.83,17.83,0,0,0-7.34,1.4,14.25,14.25,0,0,0-5.16,3.86,16.57,16.57,0,0,0-3.08,5.79,24.23,24.23,0,0,0-1,7.17,23.59,23.59,0,0,0,1,7.07Z"/><rect class="cls-1" x="222.6" y="72.85" width="268.56" height="45.48"/><path class="cls-5" d="M237.9,104.84a8.87,8.87,0,0,1-3.27-1.81,1.38,1.38,0,0,1-.45-1,1.16,1.16,0,0,1,.24-.73.69.69,0,0,1,.56-.32,1.45,1.45,0,0,1,.84.33,10.07,10.07,0,0,0,6.34,2.15,6.68,6.68,0,0,0,4-1,3.26,3.26,0,0,0,1.38-2.81,2.24,2.24,0,0,0-.66-1.69,4.81,4.81,0,0,0-1.73-1,26.44,26.44,0,0,0-2.91-.8,28.49,28.49,0,0,1-4-1.2,6.25,6.25,0,0,1-2.54-1.8,4.57,4.57,0,0,1-1-3,5.39,5.39,0,0,1,1-3.18,6.28,6.28,0,0,1,2.72-2.16,10.07,10.07,0,0,1,4-.76,11.83,11.83,0,0,1,3.91.64,8.3,8.3,0,0,1,3,1.84,1.46,1.46,0,0,1,.48,1,1.16,1.16,0,0,1-.24.73.71.71,0,0,1-.57.32,1.8,1.8,0,0,1-.86-.33,10.2,10.2,0,0,0-2.73-1.68,8.43,8.43,0,0,0-3-.48,6.33,6.33,0,0,0-3.86,1A3.4,3.4,0,0,0,237.11,90a2.65,2.65,0,0,0,1.21,2.38A12.26,12.26,0,0,0,242,93.72c1.82.44,3.24.85,4.28,1.21a6.5,6.5,0,0,1,2.59,1.66,4.18,4.18,0,0,1,1,3,5.18,5.18,0,0,1-1,3.11,6.38,6.38,0,0,1-2.74,2.09,10.21,10.21,0,0,1-4,.75A14,14,0,0,1,237.9,104.84Z"/><path class="cls-5" d="M275.32,84.37a1.32,1.32,0,0,1,.32.92v18.93a1.24,1.24,0,0,1-.3.87,1.08,1.08,0,0,1-.84.33,1,1,0,0,1-.81-.33,1.33,1.33,0,0,1-.27-.87V88.94l-6.49,12.44a1.32,1.32,0,0,1-1.22.87,1.37,1.37,0,0,1-1.23-.87L258,89.09v15.13a1.29,1.29,0,0,1-.29.87,1,1,0,0,1-.82.33,1.08,1.08,0,0,1-.84-.33,1.24,1.24,0,0,1-.3-.87V85.29a1.28,1.28,0,0,1,.33-.92,1.22,1.22,0,0,1,.9-.34,1.35,1.35,0,0,1,1.2.87l7.6,14.57,7.5-14.57a1.77,1.77,0,0,1,.53-.68,1.23,1.23,0,0,1,.67-.19A1.16,1.16,0,0,1,275.32,84.37Z"/><path class="cls-5" d="M300.94,104.37a1,1,0,0,1-.34.75,1.2,1.2,0,0,1-.82.3,1.06,1.06,0,0,1-1-.72l-2.12-4.85H285.33l-2.15,4.85a1.06,1.06,0,0,1-1.05.72,1.24,1.24,0,0,1-.84-.32,1,1,0,0,1-.36-.76,1.07,1.07,0,0,1,.12-.48l8.56-19a1.29,1.29,0,0,1,.54-.63,1.46,1.46,0,0,1,.77-.21,1.58,1.58,0,0,1,.81.22,1.42,1.42,0,0,1,.54.62l8.55,19A1.13,1.13,0,0,1,300.94,104.37Zm-14.71-6.55h9.48L291,87.08Z"/><path class="cls-5" d="M322.51,104.43a.88.88,0,0,1-.34.73,1.25,1.25,0,0,1-1.87-.31l-4-6.34a4.8,4.8,0,0,0-1.62-1.69,4.66,4.66,0,0,0-2.27-.46h-3.77v7.8a1.24,1.24,0,0,1-.33.91,1.15,1.15,0,0,1-.86.35,1.19,1.19,0,0,1-.9-.35,1.24,1.24,0,0,1-.33-.91V85.38a1.15,1.15,0,0,1,.34-.87,1.28,1.28,0,0,1,.92-.33h7.41a7.9,7.9,0,0,1,5.25,1.53,5.51,5.51,0,0,1,1.81,4.48,5.61,5.61,0,0,1-1.45,4,6.59,6.59,0,0,1-4.14,1.86,3.65,3.65,0,0,1,1.35.77,7.33,7.33,0,0,1,1.19,1.5l3.41,5.38A1.27,1.27,0,0,1,322.51,104.43Zm-7.84-10.11a5.6,5.6,0,0,0,3.67-1,3.77,3.77,0,0,0,1.21-3.08,3.69,3.69,0,0,0-1.2-3,5.68,5.68,0,0,0-3.68-1h-6v8.11Z"/><path class="cls-5" d="M333.36,105.07a1.21,1.21,0,0,1-.35-.91V86.27h-6.43a1.21,1.21,0,0,1-.84-.27,1,1,0,0,1-.3-.77,1,1,0,0,1,.3-.78,1.21,1.21,0,0,1,.84-.27h15.35a1.2,1.2,0,0,1,.83.27,1,1,0,0,1,.3.78,1,1,0,0,1-.3.77,1.2,1.2,0,0,1-.83.27h-6.44v17.89a1.28,1.28,0,0,1-.32.91,1.19,1.19,0,0,1-.9.35A1.21,1.21,0,0,1,333.36,105.07Z"/><path class="cls-5" d="M347.94,105.07a1.24,1.24,0,0,1-.33-.91V85.38a1.15,1.15,0,0,1,.34-.87,1.28,1.28,0,0,1,.92-.33H356a7.56,7.56,0,0,1,5.16,1.62A5.77,5.77,0,0,1,363,90.37,5.83,5.83,0,0,1,361.1,95,7.47,7.47,0,0,1,356,96.62h-5.9v7.54a1.24,1.24,0,0,1-.33.91,1.32,1.32,0,0,1-1.79,0Zm7.78-10.48q4.81,0,4.81-4.22t-4.81-4.16h-5.66v8.38Z"/><path class="cls-5" d="M385.85,84.37a1.32,1.32,0,0,1,.32.92v18.87a1.28,1.28,0,0,1-.32.91,1.13,1.13,0,0,1-.88.35,1.19,1.19,0,0,1-.9-.35,1.23,1.23,0,0,1-.32-.91V95.61H371.12v8.55a1.24,1.24,0,0,1-.33.91,1.19,1.19,0,0,1-.9.35,1.14,1.14,0,0,1-.88-.35,1.27,1.27,0,0,1-.31-.91V85.29a1.31,1.31,0,0,1,.31-.92,1.17,1.17,0,0,1,.88-.34,1.22,1.22,0,0,1,.9.34,1.28,1.28,0,0,1,.33.92v8.22h12.63V85.29a1.28,1.28,0,0,1,.32-.92A1.22,1.22,0,0,1,385,84,1.16,1.16,0,0,1,385.85,84.37Z"/><path class="cls-5" d="M396.89,104.19a8.55,8.55,0,0,1-3.33-3.74,13,13,0,0,1-1.17-5.71A13.36,13.36,0,0,1,393.54,89a8.53,8.53,0,0,1,3.32-3.74,10.77,10.77,0,0,1,10.26,0A8.41,8.41,0,0,1,410.44,89a13.29,13.29,0,0,1,1.15,5.73,13.14,13.14,0,0,1-1.16,5.73,8.6,8.6,0,0,1-3.34,3.75,10.51,10.51,0,0,1-10.2,0Zm10.32-3a9.86,9.86,0,0,0,1.87-6.45,9.87,9.87,0,0,0-1.85-6.43,7.19,7.19,0,0,0-10.46,0,9.86,9.86,0,0,0-1.87,6.42,9.89,9.89,0,0,0,1.87,6.43,7.16,7.16,0,0,0,10.44,0Z"/><path class="cls-5" d="M434.42,84.37a1.36,1.36,0,0,1,.3.92v18.87a1.28,1.28,0,0,1-.32.91,1.13,1.13,0,0,1-.88.35,1.25,1.25,0,0,1-1-.51l-12.41-16.6v15.85a1.27,1.27,0,0,1-.31.91,1.11,1.11,0,0,1-.86.35,1,1,0,0,1-.83-.35,1.31,1.31,0,0,1-.3-.91V85.29a1.31,1.31,0,0,1,.31-.92A1.16,1.16,0,0,1,419,84a1.28,1.28,0,0,1,1,.51l12.38,16.6V85.29a1.32,1.32,0,0,1,.32-.92,1.12,1.12,0,0,1,.85-.34A1.08,1.08,0,0,1,434.42,84.37Z"/><path class="cls-5" d="M442.06,104.94a1.15,1.15,0,0,1-.34-.87V85.38a1.15,1.15,0,0,1,.34-.87,1.26,1.26,0,0,1,.91-.33h11.19a1.21,1.21,0,0,1,.84.27,1,1,0,0,1,.3.75.92.92,0,0,1-.3.74,1.21,1.21,0,0,1-.84.27h-10v7.33h9.42a1.21,1.21,0,0,1,.84.27,1.09,1.09,0,0,1,0,1.5,1.21,1.21,0,0,1-.84.27h-9.42v7.66h10a1.26,1.26,0,0,1,.84.25.94.94,0,0,1,.3.76,1,1,0,0,1-.3.75,1.21,1.21,0,0,1-.84.27H443A1.26,1.26,0,0,1,442.06,104.94Z"/><path class="cls-5" d="M463.06,104.84a8.78,8.78,0,0,1-3.27-1.81,1.38,1.38,0,0,1-.45-1,1.16,1.16,0,0,1,.24-.73.69.69,0,0,1,.56-.32,1.45,1.45,0,0,1,.84.33,10.07,10.07,0,0,0,6.34,2.15,6.7,6.7,0,0,0,3.95-1,3.26,3.26,0,0,0,1.38-2.81,2.24,2.24,0,0,0-.66-1.69,4.81,4.81,0,0,0-1.73-1,26.44,26.44,0,0,0-2.91-.8,28.49,28.49,0,0,1-4-1.2,6.25,6.25,0,0,1-2.54-1.8,4.57,4.57,0,0,1-1-3,5.39,5.39,0,0,1,1-3.18,6.28,6.28,0,0,1,2.72-2.16,10.07,10.07,0,0,1,4-.76,11.83,11.83,0,0,1,3.91.64,8.3,8.3,0,0,1,3,1.84,1.46,1.46,0,0,1,.48,1,1.16,1.16,0,0,1-.24.73.71.71,0,0,1-.57.32,1.8,1.8,0,0,1-.86-.33,10.2,10.2,0,0,0-2.73-1.68,8.43,8.43,0,0,0-3-.48,6.33,6.33,0,0,0-3.86,1A3.4,3.4,0,0,0,462.27,90a2.65,2.65,0,0,0,1.21,2.38,12.26,12.26,0,0,0,3.72,1.39c1.82.44,3.24.85,4.28,1.21a6.5,6.5,0,0,1,2.59,1.66,4.18,4.18,0,0,1,1,3,5.18,5.18,0,0,1-1,3.11,6.38,6.38,0,0,1-2.74,2.09,10.21,10.21,0,0,1-4,.75A14,14,0,0,1,463.06,104.84Z"/></g></g></svg>