<svg xmlns="http://www.w3.org/2000/svg" width="170" xmlns:xlink="http://www.w3.org/1999/xlink" viewBox="0 0 173.81 92.07"><defs><style>.cls-1{fill:#fff;}.cls-2{fill:url(#linear-gradient);}.cls-3{opacity:0.6;fill:url(#linear-gradient-2);}.cls-4{fill:url(#linear-gradient-3);}.cls-5{opacity:0.7;fill:url(#linear-gradient-4);}.cls-6{fill:#00ea7e;}</style><linearGradient id="linear-gradient" x1="98.13" y1="46.02" x2="117.95" y2="91.67" gradientUnits="userSpaceOnUse"><stop offset="0" stop-color="#5ab6ff"/><stop offset="1" stop-color="#2f68e3"/></linearGradient><linearGradient id="linear-gradient-2" x1="164.53" y1="24.07" x2="-43.93" y2="104.91" gradientUnits="userSpaceOnUse"><stop offset="0" stop-color="#9cfffb"/><stop offset="1" stop-color="#9bfffa"/></linearGradient><linearGradient id="linear-gradient-3" x1="264.18" y1="-24.96" x2="28.29" y2="74.13" gradientUnits="userSpaceOnUse"><stop offset="0" stop-color="#e92556"/><stop offset="1" stop-color="#f9c342"/></linearGradient><linearGradient id="linear-gradient-4" x1="151.46" y1="62.79" x2="133.91" y2="69.6" xlink:href="#linear-gradient"/></defs><title>requistio-3</title><g id="Capa_2" data-name="Capa 2"><g id="Capa_1-2" data-name="Capa 1"><rect class="cls-1" x="27.77" width="146.03" height="92.07" rx="12.12"/><path class="cls-2" d="M154.75,29.54l-11.21-12a7,7,0,0,0-5.15-2.2H56.74a10.9,10.9,0,0,0-11,10.83V70.91a11.22,11.22,0,0,0,11,11.21h89A11.08,11.08,0,0,0,156.6,70.91V34.36A7,7,0,0,0,154.75,29.54Z"/><path class="cls-3" d="M151.6,30.69,141,19.38a6.62,6.62,0,0,0-4.86-2.08H59.42A10.21,10.21,0,0,0,49.14,27.5V69.58A10.34,10.34,0,0,0,59.42,79.93h83.69a10.31,10.31,0,0,0,10.25-10.35V35.22A6.65,6.65,0,0,0,151.6,30.69Z"/><rect class="cls-4" x="60.08" y="25.15" width="58.4" height="46.72" rx="6.71"/><path class="cls-1" d="M80.37,72.28a.21.21,0,0,1-.21-.2V25.15a.21.21,0,0,1,.42,0V72.08A.21.21,0,0,1,80.37,72.28Z"/><path class="cls-1" d="M98.61,72.28a.2.2,0,0,1-.21-.2V25.15a.2.2,0,0,1,.21-.2.2.2,0,0,1,.2.2V72.08A.2.2,0,0,1,98.61,72.28Z"/><path class="cls-1" d="M80.37,37.86H60.08a.2.2,0,0,1-.2-.21.2.2,0,0,1,.2-.2H80.37a.21.21,0,1,1,0,.41Z"/><path class="cls-1" d="M80.37,48.92H60.08a.2.2,0,0,1-.2-.2.2.2,0,0,1,.2-.21H80.37a.21.21,0,1,1,0,.41Z"/><path class="cls-1" d="M80.37,59.78H60.08a.2.2,0,0,1-.2-.2.2.2,0,0,1,.2-.21H80.37a.21.21,0,1,1,0,.41Z"/><path class="cls-1" d="M118.48,37.86H98.81a.2.2,0,0,1-.2-.21.2.2,0,0,1,.2-.2h19.67a.2.2,0,0,1,.21.2A.21.21,0,0,1,118.48,37.86Z"/><path class="cls-1" d="M118.48,48.92H98.81a.2.2,0,0,1-.2-.2.2.2,0,0,1,.2-.21h19.67a.21.21,0,0,1,.21.21A.2.2,0,0,1,118.48,48.92Z"/><path class="cls-1" d="M118.48,59.78H98.81a.2.2,0,0,1-.2-.2.2.2,0,0,1,.2-.21h19.67a.21.21,0,0,1,.21.21A.2.2,0,0,1,118.48,59.78Z"/><rect class="cls-5" x="144.01" y="55.55" width="4.01" height="18.71" rx="2"/><circle class="cls-6" cx="27.96" cy="48.44" r="27.96" transform="translate(-25.1 66.14) rotate(-78.46)"/><path class="cls-1" d="M23.66,60.81a2.23,2.23,0,0,1-1.59-.66l-8-8A2.26,2.26,0,0,1,17.3,49l6.37,6.38L38,41.06a2.25,2.25,0,1,1,3.18,3.19l-16,15.91A2.22,2.22,0,0,1,23.66,60.81Z"/></g></g></svg>